<?xml version="1.0" encoding="UTF-8"?>
<svg xmlns="http://www.w3.org/2000/svg" xmlns:xlink="http://www.w3.org/1999/xlink" version="1.1" viewBox="0 0 254 59">
  <defs>
    <style>
      .cls-1 {
        fill: url(#linear-gradient);
      }

      .cls-1, .cls-2 {
        fill-rule: evenodd;
      }

      .cls-2 {
        fill: #25282a;
      }
    </style>
    <linearGradient id="linear-gradient" x1="25.6462" y1="59.39716" x2="25.6462" y2="8.10463" gradientTransform="translate(0 59.88983) scale(1 -1)" gradientUnits="userSpaceOnUse">
      <stop offset="0" stop-color="#ffa400"/>
      <stop offset=".57824" stop-color="#ff6c0e"/>
      <stop offset="1" stop-color="#ff4438"/>
    </linearGradient>
  </defs>
  <!-- Generator: Adobe Illustrator 28.6.0, SVG Export Plug-In . SVG Version: 1.2.0 Build 709)  -->
  <g>
    <g id="Layer_1">
      <path class="cls-2" d="M70.2244,42.5294v2.9669h15.19209v-2.9669h-.3564c-2.4328,0-3.0263-.8902-3.0263-3.5016v-15.0137c1.1273-1.2462,3.0859-2.0177,4.9252-2.0177,2.7299,0,4.5696,1.365,4.5696,5.0442v11.9872c0,2.4924-.41531,3.5016-2.967,3.5016h-.2967v2.9669h14.7761v-2.9669h-.296c-2.8489,0-3.5016-1.0684-3.5016-3.9169v-13.7082c0-5.4003-2.9081-8.6641-8.1893-8.6641-4.0354,0-7.1806,2.0176-8.7235,4.9255h-.2968v-12.58083c0-2.25504,0-4.56941.0593-6.52774h-2.4924c-2.611.77146-7.8333,2.19571-10.6818,2.67044v2.67044h1.8397c2.3143,0,3.5605.83082,3.5605,3.61999v28.0098c0,2.3146-.831,3.4419-3.7979,3.5016h-.2968ZM130.556,37.2371V11.018c0-2.78912-1.246-3.61995-3.561-3.61995h-1.839v-2.67043c2.848-.47474,8.07101-1.89898,10.68101-2.67044h2.493c-.05901,1.95832-.05901,4.2727-.05901,6.52774v30.44298c0,2.3739.89,3.5015,3.85701,3.5015h.297v2.967h-15.472c-.882.5155-1.862.8308-2.925.8308-2.729,0-5.222-1.7804-5.341-5.4005v-.1185h-.296c-1.128,3.0859-3.679,5.3408-7.359,5.3408-4.27299,0-7.77399-3.0858-7.77399-7.1212,0-5.1034,4.154-7.1804,9.792-8.664l4.985-1.3055v-4.7475c0-3.0265-1.603-4.9255-4.273-4.9255s-4.035,1.4242-4.035,3.2045c0,.4778.093.8624.191,1.2674h0c.109.45.224.9251.224,1.5811,0,1.721-1.484,3.0859-3.383,3.0859-2.136,0-3.798-1.6023-3.798-4.0947,0-4.3321,4.214-8.3674,11.513-8.3674,6.409,0,11.038,2.7298,11.038,9.3762v.2374l-.178,12.9961c0,1.7804,1.029,2.3739,2.275,2.3739,1.182,0,2.93099-.2941,2.947-3.8086ZM118.035,31.9661v5.9937c-.772,1.2462-2.137,2.3738-4.036,2.3738-2.017,0-3.56-1.3651-3.56-3.3234,0-2.3737,1.89899-3.4419,5.044-4.332l2.552-.7121ZM153.543,46.3865c6.884,0,10.91901-5.6376,11.453-12.1654h-2.492c-.653,2.4924-3.086,4.7474-6.647,4.7474-5.22099,0-8.66299-4.3913-8.66299-10.385,0-5.2222,2.907-8.4267,6.646-8.4267,1.95801,0,2.908,1.0088,3.323,2.1363.207.5375.26901,1.1037.32901,1.6386.02499.2329.05099.4598.08699.6758.29601,1.6616,1.543,2.9672,3.382,2.9672,2.493,0,3.91701-1.721,3.91701-3.976,0-1.3051-.399-2.534-1.12901-3.6058,2.02501.3524,2.78001,1.9412,3.72,4.0806l9.317,20.9483-.59399,1.4833c-1.12801,2.8484-2.849,4.2136-5.341,4.2136-.60201,0-1.13499-.0832-1.686-.1691-.58899-.0919-1.198-.1869-1.93399-.1869-2.433,0-4.213,1.2462-4.213,3.5012,0,2.4331,2.01799,4.1539,5.756,4.1539,5.39999,0,8.48599-3.0267,11.03799-9.4948l9.614-24.3902c1.00801-2.6111,1.95801-4.154,4.45001-4.2133v-3.0859h-11.097v3.0859h.77199c1.60201,0,2.373.5934,2.373,1.7803,0,.5934-.17799,1.3648-.534,2.255l-4.74699,12.6994-4.985-12.4027c-.356-.8308-.53401-1.6023-.53401-2.1957,0-1.3649.83101-2.1363,2.55101-2.1363h.713v-3.0859h-18.897c-1.339-.4939-2.883-.7715-4.58299-.7715-7.774,0-14.302,6.053-14.302,15.7259,0,7.8925,5.16299,14.5985,12.937,14.5985ZM206.258,46.3867c7.83301,0,14.836-6.1718,14.836-15.1919s-7.00299-15.1919-14.836-15.1919c-7.952,0-14.89499,6.1717-14.89499,15.1919s6.94299,15.1919,14.89499,15.1919ZM206.258,42.2328c-4.15399,0-6.231-4.2729-6.231-11.038,0-6.5871,1.95801-10.9785,6.231-10.9785,4.095,0,6.231,4.2133,6.231,10.9785,0,6.5871-2.01801,11.038-6.231,11.038ZM220.72701,45.4965v-2.967h.11899c3.08601,0,3.97601-1.0684,3.97601-3.5015v-14.1829c0-2.5518-1.18701-3.3826-3.561-3.3826h-1.06801v-2.6111c2.04901-.419,5.485-1.3128,8.10301-1.9938.71899-.187,1.37599-.358,1.92599-.4986h2.315v4.8068h.29599c1.54301-2.9078,4.688-4.9255,8.664-4.9255,5.341,0,8.24901,3.2639,8.24901,8.6641v13.7083c0,2.8484.71199,3.9168,3.561,3.9168h.55099v2.967h-15.03101v-2.967h.297c2.492,0,2.90701-1.0091,2.90701-3.5015v-11.9279c0-3.7979-1.899-5.1035-4.569-5.1035-1.84001,0-3.798.8308-4.925,2.0177v15.0137c0,2.6113.593,3.5015,3.026,3.5015h.356v2.967h-15.192Z"/>
      <path class="cls-1" d="M48.9101,25.3656c.7907-.3943,1.5852-.7055,2.3823-.9334C50.412,11.0639,39.2668.49268,25.6468.49268,12.0208.49268.87134,11.0734,0,24.4503c.77608.2261,1.54984.5313,2.31966.9153,2.69042,1.3424,5.28749,1.3424,7.97794,0,3.745-1.8684,7.5834-1.8684,11.3284,0,2.6904,1.3424,5.2875,1.3424,7.9779,0,3.745-1.8684,7.5834-1.8684,11.3286,0,2.6903,1.3424,5.2872,1.3424,7.9776,0ZM50.5858,28.709c.2219-.1107.4431-.2123.6638-.3048-.1508,1.718-.4711,3.3875-.9445,4.9915-.4662.1741-.9309.3767-1.3948.608-2.6904,1.3423-5.2873,1.3423-7.9777,0-3.7451-1.8685-7.5835-1.8685-11.3285,0-2.6904,1.3423-5.2875,1.3423-7.9779,0-3.745-1.8685-7.5834-1.8685-11.3285,0-2.69038,1.3423-5.28745,1.3423-7.97787,0-.43986-.2194-.88101-.4131-1.32314-.581-.47516-1.6037-.79744-3.2728-.94999-4.9905.19883.0848.39809.1771.59788.2768,3.74504,1.8684,7.58342,1.8684,11.32842,0,2.6904-1.3424,5.2875-1.3424,7.9779,0,3.745,1.8684,7.5834,1.8684,11.3284,0,2.6905-1.3424,5.2876-1.3424,7.9782,0,3.7447,1.8684,7.5832,1.8684,11.3283,0ZM2.99802,38.2721c1.05198,1.9511,2.34979,3.7509,3.85205,5.3577,1.14184-.0791,2.28608-.4085,3.44773-.9883,3.745-1.8682,7.5834-1.8682,11.3285,0,2.6904,1.3424,5.2874,1.3424,7.9778,0,3.7451-1.8682,7.5834-1.8682,11.3286,0,1.182.5901,2.3458.9206,3.5076.9921,1.5095-1.6137,2.8127-3.4222,3.8675-5.3835-3.013.8891-6.0616.5882-9.0503-.9031-2.6906-1.3423-5.2877-1.3423-7.9781,0-3.745,1.8686-7.5834,1.8686-11.3284,0-2.6904-1.3423-5.2875-1.3423-7.9779,0-2.96408,1.4788-5.98664,1.7873-8.97508.9251ZM10.2818,46.6997c4.2859,3.1942,9.6041,5.0855,15.3649,5.0855,5.7517,0,11.0622-1.8856,15.3445-5.0707-.5798-.1987-1.158-.4422-1.734-.7295-2.6906-1.3423-5.2877-1.3423-7.9781,0-3.7451,1.8686-7.5834,1.8686-11.3285,0-2.6904-1.3423-5.2874-1.3423-7.9779,0-.5617.2804-1.1255.5187-1.6909.7147Z"/>
    </g>
  </g>
</svg>