<svg width="254" height="58" viewBox="0 0 254 58" fill="none" xmlns="http://www.w3.org/2000/svg">
<g clip-path="url(#clip0_153_273)">
<path fill-rule="evenodd" clip-rule="evenodd" d="M70.2244 42.3096V45.2766H85.4165V42.3096H85.0601C82.6273 42.3096 82.0338 41.4194 82.0338 38.8081V23.7944C83.1611 22.5482 85.1197 21.7767 86.959 21.7767C89.6889 21.7767 91.5286 23.1416 91.5286 26.8209V38.8081C91.5286 41.3005 91.1133 42.3096 88.5616 42.3096H88.2649V45.2766H103.041V42.3096H102.745C99.8961 42.3096 99.2434 41.2412 99.2434 38.3928V24.6845C99.2434 19.2843 96.3353 16.0204 91.0541 16.0204C87.0187 16.0204 83.8735 18.0381 82.3306 20.9459H82.0338V8.36515C82.0338 6.11011 82.0338 3.79573 82.0931 1.8374H79.6007C76.9897 2.60886 71.7674 4.03311 68.9189 4.50785V7.17828H70.7586C73.0729 7.17828 74.3191 8.0091 74.3191 10.7982V38.8081C74.3191 41.1227 73.4881 42.25 70.5212 42.3096H70.2244ZM130.556 37.0174V10.7983C130.556 8.00915 129.31 7.17833 126.995 7.17833H125.156V4.5079C128.004 4.03316 133.227 2.60891 135.837 1.83745H138.33C138.271 3.79578 138.271 6.11015 138.271 8.36519V38.8081C138.271 41.182 139.161 42.3097 142.128 42.3097H142.425V45.2767H126.953C126.071 45.7922 125.091 46.1075 124.028 46.1075C121.299 46.1075 118.806 44.3271 118.687 40.707V40.5885H118.391C117.263 43.6744 114.712 45.9293 111.032 45.9293C106.759 45.9293 103.258 42.8434 103.258 38.808C103.258 33.7047 107.412 31.6277 113.05 30.1441L118.035 28.8385V24.0911C118.035 21.0646 116.432 19.1656 113.762 19.1656C111.092 19.1656 109.727 20.5898 109.727 22.3701C109.727 22.8479 109.82 23.2325 109.918 23.6374L109.918 23.6375C110.027 24.0875 110.142 24.5626 110.142 25.2186C110.142 26.9395 108.658 28.3044 106.759 28.3044C104.623 28.3044 102.961 26.7022 102.961 24.2098C102.961 19.8777 107.175 15.8423 114.474 15.8423C120.883 15.8423 125.512 18.5722 125.512 25.2186V25.456L125.334 38.452C125.334 40.2325 126.363 40.8259 127.609 40.8259C128.791 40.8259 130.54 40.5319 130.556 37.0174ZM118.035 31.7463V37.74C117.263 38.9862 115.898 40.1139 113.999 40.1139C111.982 40.1139 110.439 38.7488 110.439 36.7905C110.439 34.4168 112.338 33.3486 115.483 32.4585L118.035 31.7463ZM153.543 46.1668C160.427 46.1668 164.462 40.5292 164.996 34.0014H162.504C161.851 36.4938 159.418 38.7488 155.857 38.7488C150.636 38.7488 147.194 34.3575 147.194 28.3638C147.194 23.1416 150.101 19.937 153.84 19.937C155.798 19.937 156.748 20.9459 157.163 22.0734C157.37 22.6109 157.432 23.1771 157.492 23.712C157.517 23.9449 157.543 24.1718 157.579 24.3878C157.875 26.0494 159.122 27.355 160.961 27.355C163.454 27.355 164.878 25.634 164.878 23.3789C164.878 22.0739 164.479 20.845 163.749 19.7732C165.774 20.1256 166.529 21.7144 167.469 23.8538L176.786 44.8021L176.192 46.2854C175.064 49.1338 173.343 50.499 170.851 50.499C170.249 50.499 169.716 50.4158 169.165 50.3299C168.576 50.238 167.967 50.1429 167.231 50.1429C164.798 50.1429 163.018 51.3892 163.018 53.6441C163.018 56.0773 165.036 57.798 168.774 57.798C174.174 57.798 177.26 54.7714 179.812 48.3033L189.426 23.9131C190.434 21.302 191.384 19.7591 193.876 19.6997V16.6139H182.779V19.6997H183.551C185.153 19.6997 185.924 20.2932 185.924 21.48C185.924 22.0735 185.746 22.8449 185.39 23.7351L180.643 36.4345L175.658 24.0318C175.302 23.201 175.124 22.4295 175.124 21.8361C175.124 20.4712 175.955 19.6997 177.675 19.6997H178.388V16.6139H161.547H159.491C158.152 16.12 156.608 15.8423 154.908 15.8423C147.134 15.8423 140.606 21.8954 140.606 31.5683C140.606 39.4608 145.769 46.1668 153.543 46.1668ZM206.258 46.1669C214.091 46.1669 221.094 39.9951 221.094 30.975C221.094 21.9549 214.091 15.7832 206.258 15.7832C198.306 15.7832 191.363 21.9549 191.363 30.975C191.363 39.9951 198.306 46.1669 206.258 46.1669ZM206.258 42.013C202.104 42.013 200.027 37.7402 200.027 30.975C200.027 24.388 201.985 19.9965 206.258 19.9965C210.353 19.9965 212.489 24.2099 212.489 30.975C212.489 37.5621 210.471 42.013 206.258 42.013ZM220.727 45.2768V42.3098H220.846C223.932 42.3098 224.822 41.2414 224.822 38.8082V24.6253C224.822 22.0736 223.635 21.2428 221.261 21.2428H220.193V18.6317C222.242 18.2127 225.678 17.3188 228.296 16.6379C229.015 16.4509 229.672 16.2799 230.222 16.1393H232.537V20.9461H232.833C234.376 18.0383 237.521 16.0206 241.497 16.0206C246.838 16.0206 249.746 19.2844 249.746 24.6847V38.393C249.746 41.2414 250.458 42.3098 253.307 42.3098H253.858V45.2768H238.827V42.3098H239.124C241.616 42.3098 242.031 41.3007 242.031 38.8082V26.8804C242.031 23.0824 240.132 21.7769 237.462 21.7769C235.622 21.7769 233.664 22.6077 232.537 23.7946V38.8082C232.537 41.4196 233.13 42.3098 235.563 42.3098H235.919V45.2768H220.727Z" fill="#212324"/>
<path d="M51.2498 28.1844C51.029 28.2769 50.8079 28.3785 50.586 28.4892C46.8409 30.3576 43.0024 30.3576 39.2576 28.4892C36.567 27.1468 33.97 27.1468 31.2795 28.4892C27.5345 30.3576 23.6961 30.3576 19.9511 28.4892C17.2607 27.1468 14.6636 27.1468 11.9732 28.4892C8.22817 30.3576 4.38979 30.3576 0.644751 28.4892C0.444969 28.3895 0.245704 28.2972 0.046875 28.2123C0.199427 29.9301 0.521702 31.5992 0.996863 33.2029C1.439 33.3708 1.88014 33.5645 2.32 33.7839C5.01043 35.1262 7.60749 35.1262 10.2979 33.7839C14.0429 31.9154 17.8813 31.9154 21.6264 33.7839C24.3168 35.1262 26.9139 35.1262 29.6043 33.7839C33.3493 31.9154 37.1877 31.9154 40.9328 33.7839C43.6232 35.1262 46.2201 35.1262 48.9105 33.7839C49.3744 33.5526 49.8391 33.3499 50.3052 33.1759C50.7787 31.5718 51.0989 29.9024 51.2498 28.1844Z" fill="#212324"/>
<path d="M6.8501 43.41C5.34784 41.8032 4.05003 40.0034 2.99805 38.0524C5.98649 38.9145 9.00905 38.606 11.9731 37.1272C14.6635 35.7849 17.2606 35.7849 19.951 37.1272C23.696 38.9958 27.5344 38.9958 31.2794 37.1272C33.9699 35.7849 36.5669 35.7849 39.2575 37.1272C42.2462 38.6185 45.2948 38.9194 48.3078 38.0304C47.2531 39.9916 45.9499 41.8002 44.4403 43.4138C43.2785 43.3424 42.1147 43.0118 40.9327 42.4218C37.1876 40.5536 33.3492 40.5536 29.6042 42.4218C26.9138 43.7641 24.3167 43.7641 21.6263 42.4218C17.8813 40.5536 14.0428 40.5536 10.2978 42.4218C9.13618 43.0015 7.99194 43.331 6.8501 43.41Z" fill="#212324"/>
<path d="M10.2822 46.48C14.5681 49.6742 19.8862 51.5655 25.6471 51.5655C31.3988 51.5655 36.7093 49.6799 40.9916 46.4948C40.4118 46.2961 39.8336 46.0525 39.2576 45.7653C36.567 44.423 33.9699 44.423 31.2794 45.7653C27.5344 47.6339 23.696 47.6339 19.951 45.7653C17.2606 44.423 14.6635 44.423 11.9731 45.7653C11.4114 46.0457 10.8475 46.2839 10.2822 46.48Z" fill="#212324"/>
<path d="M51.2924 24.2125C50.4953 24.4404 49.7008 24.7515 48.9101 25.1459C46.2197 26.4882 43.6228 26.4882 40.9325 25.1459C37.1873 23.2774 33.3489 23.2774 29.6039 25.1459C26.9135 26.4882 24.3164 26.4882 21.626 25.1459C17.881 23.2774 14.0426 23.2774 10.2976 25.1459C7.60715 26.4882 5.01008 26.4882 2.31966 25.1459C1.54984 24.7618 0.776084 24.4567 0 24.2305C0.871343 10.8537 12.0208 0.272949 25.6468 0.272949C39.2668 0.272949 50.412 10.8442 51.2924 24.2125Z" fill="#212324"/>
</g>
<defs>
<clipPath id="clip0_153_273">
<rect width="253.858" height="57.6951" fill="white" transform="translate(0 0.272949)"/>
</clipPath>
</defs>
</svg>
