<svg width="254" height="59" viewBox="0 0 254 59" fill="none" xmlns="http://www.w3.org/2000/svg">
<g clip-path="url(#clip0_153_288)">
<path fill-rule="evenodd" clip-rule="evenodd" d="M70.2244 43.0047V45.9717H85.4165V43.0047H85.0601C82.6273 43.0047 82.0338 42.1145 82.0338 39.5032V24.4895C83.1611 23.2433 85.1197 22.4718 86.959 22.4718C89.6889 22.4718 91.5286 23.8367 91.5286 27.516V39.5032C91.5286 41.9956 91.1133 43.0047 88.5616 43.0047H88.2649V45.9717H103.041V43.0047H102.745C99.8961 43.0047 99.2434 41.9363 99.2434 39.0879V25.3796C99.2434 19.9794 96.3353 16.7155 91.0541 16.7155C87.0187 16.7155 83.8735 18.7332 82.3306 21.641H82.0338V9.06021C82.0338 6.80517 82.0338 4.4908 82.0931 2.53247H79.6007C76.9897 3.30393 71.7674 4.72818 68.9189 5.20292V7.87335H70.7586C73.0729 7.87335 74.3191 8.70417 74.3191 11.4933V39.5032C74.3191 41.8178 73.4881 42.9451 70.5212 43.0047H70.2244ZM130.556 37.7125V11.4933C130.556 8.70422 129.31 7.87339 126.995 7.87339H125.156V5.20296C128.004 4.72822 133.227 3.30398 135.837 2.53252H138.33C138.271 4.49084 138.271 6.80522 138.271 9.06026V39.5032C138.271 41.8771 139.161 43.0048 142.128 43.0048H142.425V45.9717H126.953C126.071 46.4872 125.091 46.8026 124.028 46.8026C121.299 46.8026 118.806 45.0222 118.687 41.4021V41.2835H118.391C117.263 44.3694 114.712 46.6244 111.032 46.6244C106.759 46.6244 103.258 43.5385 103.258 39.5031C103.258 34.3998 107.412 32.3227 113.05 30.8392L118.035 29.5336V24.7861C118.035 21.7596 116.432 19.8607 113.762 19.8607C111.092 19.8607 109.727 21.2849 109.727 23.0652C109.727 23.543 109.82 23.9276 109.918 24.3325L109.918 24.3325C110.027 24.7826 110.142 25.2577 110.142 25.9137C110.142 27.6346 108.658 28.9995 106.759 28.9995C104.623 28.9995 102.961 27.3973 102.961 24.9048C102.961 20.5728 107.175 16.5374 114.474 16.5374C120.883 16.5374 125.512 19.2672 125.512 25.9137V26.151L125.334 39.1471C125.334 40.9275 126.363 41.521 127.609 41.521C128.791 41.521 130.54 41.227 130.556 37.7125ZM118.035 32.4414V38.4351C117.263 39.6813 115.898 40.809 113.999 40.809C111.982 40.809 110.439 39.4438 110.439 37.4856C110.439 35.1118 112.338 34.0437 115.483 33.1535L118.035 32.4414ZM153.543 46.8619C160.427 46.8619 164.462 41.2243 164.996 34.6965H162.504C161.851 37.1889 159.418 39.4438 155.857 39.4438C150.636 39.4438 147.194 35.0525 147.194 29.0589C147.194 23.8367 150.101 20.6321 153.84 20.6321C155.798 20.6321 156.748 21.641 157.163 22.7685C157.37 23.3059 157.432 23.8722 157.492 24.407C157.517 24.6399 157.543 24.8669 157.579 25.0829C157.875 26.7445 159.122 28.05 160.961 28.05C163.454 28.05 164.878 26.3291 164.878 24.074C164.878 22.769 164.479 21.5401 163.749 20.4683C165.774 20.8206 166.529 22.4094 167.469 24.5488L176.786 45.4972L176.192 46.9805C175.064 49.8289 173.343 51.194 170.851 51.194C170.249 51.194 169.716 51.1109 169.165 51.0249C168.576 50.9331 167.967 50.838 167.231 50.838C164.798 50.838 163.018 52.0842 163.018 54.3392C163.018 56.7724 165.036 58.4931 168.774 58.4931C174.174 58.4931 177.26 55.4665 179.812 48.9983L189.426 24.6082C190.434 21.9971 191.384 20.4541 193.876 20.3948V17.3089H182.779V20.3948H183.551C185.153 20.3948 185.924 20.9882 185.924 22.1751C185.924 22.7685 185.746 23.54 185.39 24.4301L180.643 37.1296L175.658 24.7268C175.302 23.8961 175.124 23.1246 175.124 22.5311C175.124 21.1662 175.955 20.3948 177.675 20.3948H178.388V17.3089H161.547H159.491C158.152 16.8151 156.608 16.5374 154.908 16.5374C147.134 16.5374 140.606 22.5904 140.606 32.2634C140.606 40.1559 145.769 46.8619 153.543 46.8619ZM206.258 46.862C214.091 46.862 221.094 40.6902 221.094 31.6701C221.094 22.6499 214.091 16.4783 206.258 16.4783C198.306 16.4783 191.363 22.6499 191.363 31.6701C191.363 40.6902 198.306 46.862 206.258 46.862ZM206.258 42.7081C202.104 42.7081 200.027 38.4353 200.027 31.6701C200.027 25.083 201.985 20.6916 206.258 20.6916C210.353 20.6916 212.489 24.905 212.489 31.6701C212.489 38.2572 210.471 42.7081 206.258 42.7081ZM220.727 45.9718V43.0049H220.846C223.932 43.0049 224.822 41.9365 224.822 39.5033V25.3204C224.822 22.7687 223.635 21.9378 221.261 21.9378H220.193V19.3268C222.242 18.9078 225.678 18.0139 228.296 17.333C229.015 17.1459 229.672 16.975 230.222 16.8343H232.537V21.6411H232.833C234.376 18.7333 237.521 16.7156 241.497 16.7156C246.838 16.7156 249.746 19.9795 249.746 25.3797V39.088C249.746 41.9365 250.458 43.0049 253.307 43.0049H253.858V45.9718H238.827V43.0049H239.124C241.616 43.0049 242.031 41.9957 242.031 39.5033V27.5754C242.031 23.7775 240.132 22.4719 237.462 22.4719C235.622 22.4719 233.664 23.3028 232.537 24.4896V39.5033C232.537 42.1147 233.13 43.0049 235.563 43.0049H235.919V45.9718H220.727Z" fill="#F9F8F7"/>
<path d="M51.2498 28.8796C51.029 28.972 50.8079 29.0736 50.586 29.1843C46.8409 31.0528 43.0024 31.0528 39.2576 29.1843C36.567 27.842 33.97 27.842 31.2795 29.1843C27.5345 31.0528 23.6961 31.0528 19.9511 29.1843C17.2607 27.842 14.6636 27.842 11.9732 29.1843C8.22817 31.0528 4.38979 31.0528 0.644751 29.1843C0.444969 29.0846 0.245704 28.9924 0.046875 28.9075C0.199427 30.6252 0.521702 32.2944 0.996863 33.898C1.439 34.0659 1.88014 34.2596 2.32 34.479C5.01043 35.8213 7.60749 35.8213 10.2979 34.479C14.0429 32.6106 17.8813 32.6106 21.6264 34.479C24.3168 35.8213 26.9139 35.8213 29.6043 34.479C33.3493 32.6106 37.1877 32.6106 40.9328 34.479C43.6232 35.8213 46.2201 35.8213 48.9105 34.479C49.3744 34.2477 49.8391 34.0451 50.3052 33.8711C50.7787 32.267 51.0989 30.5975 51.2498 28.8796Z" fill="#F9F8F7"/>
<path d="M6.8501 44.1051C5.34784 42.4983 4.05003 40.6985 2.99805 38.7474C5.98649 39.6096 9.00905 39.3011 11.9731 37.8223C14.6635 36.48 17.2606 36.48 19.951 37.8223C23.696 39.6909 27.5344 39.6909 31.2794 37.8223C33.9699 36.48 36.5669 36.48 39.2575 37.8223C42.2462 39.3136 45.2948 39.6145 48.3078 38.7254C47.2531 40.6867 45.9499 42.4952 44.4403 44.1089C43.2785 44.0374 42.1147 43.7069 40.9327 43.1168C37.1876 41.2486 33.3492 41.2486 29.6042 43.1168C26.9138 44.4592 24.3167 44.4592 21.6263 43.1168C17.8813 41.2486 14.0428 41.2486 10.2978 43.1168C9.13618 43.6966 7.99194 44.026 6.8501 44.1051Z" fill="#F9F8F7"/>
<path d="M10.2822 47.175C14.5681 50.3692 19.8862 52.2606 25.6471 52.2606C31.3988 52.2606 36.7093 50.3749 40.9916 47.1899C40.4118 46.9911 39.8336 46.7476 39.2576 46.4604C36.567 45.118 33.9699 45.118 31.2794 46.4604C27.5344 48.3289 23.696 48.3289 19.951 46.4604C17.2606 45.118 14.6635 45.118 11.9731 46.4604C11.4114 46.7408 10.8475 46.979 10.2822 47.175Z" fill="#F9F8F7"/>
<path d="M51.2924 24.9076C50.4953 25.1355 49.7008 25.4466 48.9101 25.841C46.2197 27.1833 43.6228 27.1833 40.9325 25.841C37.1873 23.9725 33.3489 23.9725 29.6039 25.841C26.9135 27.1833 24.3164 27.1833 21.626 25.841C17.881 23.9725 14.0426 23.9725 10.2976 25.841C7.60715 27.1833 5.01008 27.1833 2.31966 25.841C1.54984 25.4569 0.776084 25.1518 0 24.9256C0.871343 11.5488 12.0208 0.968018 25.6468 0.968018C39.2668 0.968018 50.412 11.5393 51.2924 24.9076Z" fill="#F9F8F7"/>
</g>
<defs>
<clipPath id="clip0_153_288">
<rect width="253.858" height="57.6951" fill="white" transform="translate(0 0.968018)"/>
</clipPath>
</defs>
</svg>
