<svg width="254" height="59" viewBox="0 0 254 59" fill="none" xmlns="http://www.w3.org/2000/svg">
<g clip-path="url(#clip0_153_303)">
<path fill-rule="evenodd" clip-rule="evenodd" d="M70.2244 42.6998V45.6668H85.4165V42.6998H85.0601C82.6273 42.6998 82.0338 41.8096 82.0338 39.1983V24.1846C83.1611 22.9384 85.1197 22.1669 86.959 22.1669C89.6889 22.1669 91.5286 23.5318 91.5286 27.2111V39.1983C91.5286 41.6907 91.1133 42.6998 88.5616 42.6998H88.2649V45.6668H103.041V42.6998H102.745C99.8961 42.6998 99.2434 41.6314 99.2434 38.783V25.0747C99.2434 19.6745 96.3353 16.4106 91.0541 16.4106C87.0187 16.4106 83.8735 18.4283 82.3306 21.3361H82.0338V8.75534C82.0338 6.5003 82.0338 4.18593 82.0931 2.2276H79.6007C76.9897 2.99906 71.7674 4.42331 68.9189 4.89805V7.56848H70.7586C73.0729 7.56848 74.3191 8.3993 74.3191 11.1884V39.1983C74.3191 41.5129 73.4881 42.6402 70.5212 42.6998H70.2244ZM130.556 37.4076V11.1885C130.556 8.39935 129.31 7.56852 126.995 7.56852H125.156V4.89809C128.004 4.42335 133.227 2.99911 135.837 2.22765H138.33C138.271 4.18597 138.271 6.50035 138.271 8.75539V39.1983C138.271 41.5722 139.161 42.6999 142.128 42.6999H142.425V45.6669H126.953C126.071 46.1824 125.091 46.4977 124.028 46.4977C121.299 46.4977 118.806 44.7173 118.687 41.0972V40.9787H118.391C117.263 44.0646 114.712 46.3195 111.032 46.3195C106.759 46.3195 103.258 43.2336 103.258 39.1982C103.258 34.0949 107.412 32.0179 113.05 30.5343L118.035 29.2287V24.4813C118.035 21.4547 116.432 19.5558 113.762 19.5558C111.092 19.5558 109.727 20.98 109.727 22.7603C109.727 23.2381 109.82 23.6227 109.918 24.0276L109.918 24.0277C110.027 24.4777 110.142 24.9528 110.142 25.6088C110.142 27.3297 108.658 28.6946 106.759 28.6946C104.623 28.6946 102.961 27.0924 102.961 24.6C102.961 20.2679 107.175 16.2325 114.474 16.2325C120.883 16.2325 125.512 18.9624 125.512 25.6088V25.8462L125.334 38.8422C125.334 40.6227 126.363 41.2161 127.609 41.2161C128.791 41.2161 130.54 40.9221 130.556 37.4076ZM118.035 32.1365V38.1302C117.263 39.3764 115.898 40.5041 113.999 40.5041C111.982 40.5041 110.439 39.139 110.439 37.1807C110.439 34.807 112.338 33.7388 115.483 32.8487L118.035 32.1365ZM153.543 46.557C160.427 46.557 164.462 40.9194 164.996 34.3916H162.504C161.851 36.884 159.418 39.139 155.857 39.139C150.636 39.139 147.194 34.7477 147.194 28.754C147.194 23.5318 150.101 20.3272 153.84 20.3272C155.798 20.3272 156.748 21.3361 157.163 22.4636C157.37 23.001 157.432 23.5673 157.492 24.1022C157.517 24.3351 157.543 24.562 157.579 24.778C157.875 26.4396 159.122 27.7452 160.961 27.7452C163.454 27.7452 164.878 26.0242 164.878 23.7691C164.878 22.4641 164.479 21.2352 163.749 20.1634C165.774 20.5158 166.529 22.1046 167.469 24.244L176.786 45.1923L176.192 46.6756C175.064 49.524 173.343 50.8892 170.851 50.8892C170.249 50.8892 169.716 50.806 169.165 50.7201C168.576 50.6282 167.967 50.5331 167.231 50.5331C164.798 50.5331 163.018 51.7794 163.018 54.0343C163.018 56.4675 165.036 58.1882 168.774 58.1882C174.174 58.1882 177.26 55.1616 179.812 48.6935L189.426 24.3033C190.434 21.6922 191.384 20.1493 193.876 20.0899V17.0041H182.779V20.0899H183.551C185.153 20.0899 185.924 20.6834 185.924 21.8702C185.924 22.4637 185.746 23.2351 185.39 24.1253L180.643 36.8247L175.658 24.422C175.302 23.5912 175.124 22.8197 175.124 22.2263C175.124 20.8614 175.955 20.0899 177.675 20.0899H178.388V17.0041H161.547H159.491C158.152 16.5102 156.608 16.2325 154.908 16.2325C147.134 16.2325 140.606 22.2856 140.606 31.9585C140.606 39.851 145.769 46.557 153.543 46.557ZM206.258 46.5571C214.091 46.5571 221.094 40.3853 221.094 31.3652C221.094 22.3451 214.091 16.1734 206.258 16.1734C198.306 16.1734 191.363 22.3451 191.363 31.3652C191.363 40.3853 198.306 46.5571 206.258 46.5571ZM206.258 42.4032C202.104 42.4032 200.027 38.1304 200.027 31.3652C200.027 24.7782 201.985 20.3867 206.258 20.3867C210.353 20.3867 212.489 24.6001 212.489 31.3652C212.489 37.9523 210.471 42.4032 206.258 42.4032ZM220.727 45.667V42.7H220.846C223.932 42.7 224.822 41.6316 224.822 39.1984V25.0155C224.822 22.4638 223.635 21.633 221.261 21.633H220.193V19.0219C222.242 18.6029 225.678 17.709 228.296 17.0281C229.015 16.8411 229.672 16.6701 230.222 16.5295H232.537V21.3363H232.833C234.376 18.4285 237.521 16.4108 241.497 16.4108C246.838 16.4108 249.746 19.6746 249.746 25.0749V38.7832C249.746 41.6316 250.458 42.7 253.307 42.7H253.858V45.667H238.827V42.7H239.124C241.616 42.7 242.031 41.6909 242.031 39.1984V27.2706C242.031 23.4726 240.132 22.1671 237.462 22.1671C235.622 22.1671 233.664 22.9979 232.537 24.1847V39.1984C232.537 41.8098 233.13 42.7 235.563 42.7H235.919V45.667H220.727Z" fill="#003058"/>
<path d="M51.2498 28.5746C51.029 28.6671 50.8079 28.7687 50.586 28.8794C46.8409 30.7478 43.0024 30.7478 39.2576 28.8794C36.567 27.537 33.97 27.537 31.2795 28.8794C27.5345 30.7478 23.6961 30.7478 19.9511 28.8794C17.2607 27.537 14.6636 27.537 11.9732 28.8794C8.22817 30.7478 4.38979 30.7478 0.644751 28.8794C0.444969 28.7797 0.245704 28.6874 0.046875 28.6025C0.199427 30.3203 0.521702 31.9894 0.996863 33.5931C1.439 33.761 1.88014 33.9547 2.32 34.1741C5.01043 35.5164 7.60749 35.5164 10.2979 34.1741C14.0429 32.3056 17.8813 32.3056 21.6264 34.1741C24.3168 35.5164 26.9139 35.5164 29.6043 34.1741C33.3493 32.3056 37.1877 32.3056 40.9328 34.1741C43.6232 35.5164 46.2201 35.5164 48.9105 34.1741C49.3744 33.9428 49.8391 33.7401 50.3052 33.5661C50.7787 31.962 51.0989 30.2926 51.2498 28.5746Z" fill="#003058"/>
<path d="M6.8501 43.8001C5.34784 42.1933 4.05003 40.3936 2.99805 38.4425C5.98649 39.3046 9.00905 38.9961 11.9731 37.5173C14.6635 36.175 17.2606 36.175 19.951 37.5173C23.696 39.3859 27.5344 39.3859 31.2794 37.5173C33.9699 36.175 36.5669 36.175 39.2575 37.5173C42.2462 39.0087 45.2948 39.3096 48.3078 38.4205C47.2531 40.3818 45.9499 42.1903 44.4403 43.8039C43.2785 43.7325 42.1147 43.4019 40.9327 42.8119C37.1876 40.9437 33.3492 40.9437 29.6042 42.8119C26.9138 44.1542 24.3167 44.1542 21.6263 42.8119C17.8813 40.9437 14.0428 40.9437 10.2978 42.8119C9.13618 43.3917 7.99194 43.7211 6.8501 43.8001Z" fill="#003058"/>
<path d="M10.2822 46.8701C14.5681 50.0643 19.8862 51.9556 25.6471 51.9556C31.3988 51.9556 36.7093 50.07 40.9916 46.8849C40.4118 46.6862 39.8336 46.4427 39.2576 46.1554C36.567 44.8131 33.9699 44.8131 31.2794 46.1554C27.5344 48.024 23.696 48.024 19.951 46.1554C17.2606 44.8131 14.6635 44.8131 11.9731 46.1554C11.4114 46.4358 10.8475 46.6741 10.2822 46.8701Z" fill="#003058"/>
<path d="M51.2924 24.6027C50.4953 24.8305 49.7008 25.1417 48.9101 25.536C46.2197 26.8784 43.6228 26.8784 40.9325 25.536C37.1873 23.6676 33.3489 23.6676 29.6039 25.536C26.9135 26.8784 24.3164 26.8784 21.626 25.536C17.881 23.6676 14.0426 23.6676 10.2976 25.536C7.60715 26.8784 5.01008 26.8784 2.31966 25.536C1.54984 25.152 0.776084 24.8468 0 24.6207C0.871343 11.2438 12.0208 0.663086 25.6468 0.663086C39.2668 0.663086 50.412 11.2343 51.2924 24.6027Z" fill="#003058"/>
</g>
<defs>
<clipPath id="clip0_153_303">
<rect width="253.858" height="57.6951" fill="white" transform="translate(0 0.663086)"/>
</clipPath>
</defs>
</svg>
