<svg width="138" height="123" viewBox="0 0 138 123" fill="none" xmlns="http://www.w3.org/2000/svg">
<g clip-path="url(#clip0_153_523)">
<path fill-rule="evenodd" clip-rule="evenodd" d="M1.2396 110.417V112.627H12.551V110.417H12.2857C10.4743 110.417 10.0324 109.755 10.0324 107.81V96.6317C10.8718 95.7038 12.3301 95.1294 13.6996 95.1294C15.7321 95.1294 17.1019 96.1457 17.1019 98.8851V107.81C17.1019 109.666 16.7927 110.417 14.8928 110.417H14.6719V112.627H25.6738V110.417H25.4529C23.332 110.417 22.846 109.622 22.846 107.501V97.2945C22.846 93.2736 20.6808 90.8435 16.7486 90.8435C13.744 90.8435 11.4022 92.3458 10.2534 94.5108H10.0324V85.1436C10.0324 83.4646 10.0324 81.7414 10.0766 80.2833H8.22079C6.27676 80.8577 2.38842 81.9182 0.267578 82.2716V84.2599H1.63734C3.36044 84.2599 4.28832 84.8785 4.28832 86.9552V107.81C4.28832 109.534 3.66964 110.373 1.46054 110.417H1.2396ZM46.16 106.441L46.1599 106.441C46.1599 109.092 44.8495 109.313 43.9658 109.313C43.0379 109.313 42.2718 108.871 42.2718 107.545L42.4042 97.8689V97.6921C42.4042 92.7434 38.9577 90.7109 34.1859 90.7109C28.751 90.7109 25.614 93.7155 25.614 96.941C25.614 98.7968 26.8511 99.9897 28.4418 99.9897C29.8557 99.9897 30.9604 98.9735 30.9604 97.6921C30.9604 97.2037 30.8747 96.85 30.7936 96.5149L30.7936 96.5149C30.7205 96.2134 30.6512 95.927 30.6512 95.5713C30.6512 94.2457 31.6673 93.1853 33.6558 93.1853C35.6439 93.1853 36.8369 94.5992 36.8369 96.8526V100.387L33.1254 101.359C28.9278 102.464 25.835 104.011 25.835 107.81C25.835 110.815 28.4418 113.113 31.6232 113.113C34.3627 113.113 36.2626 111.434 37.102 109.136H37.3229V109.224C37.4115 111.92 39.2672 113.245 41.2995 113.245C42.091 113.245 42.8205 113.01 43.4776 112.627H54.997V110.418H54.776C52.5669 110.418 51.9041 109.578 51.9041 107.81V85.1437C51.9041 83.4647 51.9041 81.7415 51.9482 80.2834H50.0925C48.1484 80.8578 44.2601 81.9182 42.1392 82.2717V84.26H43.509C45.2321 84.26 46.16 84.8786 46.16 86.9553V106.441ZM36.8369 102.552V107.015C36.2626 107.943 35.2462 108.783 33.8323 108.783C32.3301 108.783 31.1813 107.766 31.1813 106.308C31.1813 104.541 32.5952 103.745 34.937 103.083L36.8369 102.552ZM63.2753 113.289C68.4008 113.289 71.4054 109.092 71.8028 104.231H69.9471C69.4611 106.087 67.6497 107.766 64.9984 107.766C61.1104 107.766 58.5477 104.497 58.5477 100.034C58.5477 96.1457 60.7126 93.7597 63.4963 93.7597C64.9543 93.7597 65.6613 94.5108 65.9705 95.3503C66.1244 95.7505 66.1711 96.1721 66.2152 96.5703C66.2344 96.7437 66.2531 96.9127 66.2799 97.0736C66.5009 98.3107 67.4288 99.2828 68.7985 99.2828C70.6543 99.2828 71.7146 98.0014 71.7146 96.3224C71.7146 95.3507 71.418 94.4357 70.8742 93.6377C72.3816 93.9001 72.9441 95.0831 73.6436 96.6759L80.5806 112.273L80.1388 113.378C79.2991 115.499 78.0176 116.515 76.1622 116.515C75.7137 116.515 75.3169 116.453 74.9068 116.389L74.9068 116.389C74.4683 116.321 74.0148 116.25 73.4668 116.25C71.6551 116.25 70.3295 117.178 70.3295 118.857C70.3295 120.668 71.8319 121.95 74.6156 121.95C78.6363 121.95 80.934 119.696 82.8339 114.88L89.9919 96.7201C90.743 94.776 91.4499 93.6272 93.3057 93.583V91.2854H85.0433V93.583H85.6175C86.8105 93.583 87.385 94.0248 87.385 94.9085C87.385 95.3504 87.2524 95.9248 86.9873 96.5876L83.4526 106.043L79.741 96.8085C79.4759 96.1899 79.3433 95.6155 79.3433 95.1736C79.3433 94.1574 79.962 93.583 81.2432 93.583H81.7736V91.2854H69.2343H67.7036C66.7072 90.9176 65.5574 90.7109 64.2915 90.7109C58.5032 90.7109 53.6429 95.2178 53.6429 102.42C53.6429 108.296 57.4871 113.289 63.2753 113.289ZM102.525 113.289C108.357 113.289 113.571 108.694 113.571 101.978C113.571 95.262 108.357 90.6668 102.525 90.6668C96.6041 90.6668 91.4345 95.262 91.4345 101.978C91.4345 108.694 96.6041 113.289 102.525 113.289ZM102.525 110.197C99.4318 110.197 97.8855 107.015 97.8855 101.978C97.8855 97.0736 99.3436 93.8039 102.525 93.8039C105.574 93.8039 107.164 96.9411 107.164 101.978C107.164 106.883 105.662 110.197 102.525 110.197ZM113.298 112.627V110.418H113.386C115.684 110.418 116.347 109.622 116.347 107.811V97.2504C116.347 95.3505 115.463 94.7319 113.696 94.7319H112.9V92.7878C114.426 92.4758 116.984 91.8103 118.933 91.3033C119.469 91.1641 119.958 91.0368 120.367 90.932H122.091V94.511H122.312C123.461 92.3459 125.802 90.8436 128.763 90.8436C132.739 90.8436 134.904 93.2738 134.904 97.2946V107.501C134.904 109.622 135.435 110.418 137.555 110.418H137.966V112.627H126.774V110.418H126.995C128.851 110.418 129.16 109.666 129.16 107.811V98.9295C129.16 96.1016 127.746 95.1296 125.758 95.1296C124.388 95.1296 122.93 95.7482 122.091 96.6319V107.811C122.091 109.755 122.533 110.418 124.344 110.418H124.609V112.627H113.298Z" fill="#F9F8F7"/>
<path d="M48.3286 62.4256C54.0929 66.7216 61.2455 69.2654 68.9935 69.2654C76.7293 69.2654 83.8716 66.7292 89.6311 62.4455C88.8513 62.1783 88.0736 61.8507 87.2989 61.4644C83.6802 59.659 80.1873 59.659 76.5688 61.4644C71.5319 63.9775 66.3695 63.9775 61.3326 61.4644C57.7142 59.659 54.2213 59.659 50.6028 61.4644C49.8473 61.8415 49.0889 62.1619 48.3286 62.4256Z" fill="#F44544"/>
<path d="M103.428 37.8192C103.131 37.9435 102.834 38.0801 102.535 38.229C97.4983 40.742 92.3356 40.742 87.2991 38.229C83.6804 36.4237 80.1875 36.4237 76.569 38.229C71.5321 40.742 66.3697 40.742 61.3329 38.229C57.7144 36.4237 54.2215 36.4237 50.603 38.229C45.5661 40.742 40.4037 40.742 35.3669 38.229C35.0982 38.0949 34.8302 37.9709 34.5627 37.8567C34.7679 40.167 35.2014 42.4119 35.8404 44.5687C36.4351 44.7945 37.0284 45.055 37.62 45.3502C41.2385 47.1555 44.7314 47.1555 48.3498 45.3502C53.3867 42.8372 58.5492 42.8372 63.586 45.3502C67.2045 47.1555 70.6974 47.1555 74.3159 45.3502C79.3527 42.8372 84.5151 42.8372 89.5522 45.3502C93.1706 47.1555 96.6633 47.1555 100.282 45.3502C100.906 45.0391 101.531 44.7665 102.158 44.5325C102.794 42.3751 103.225 40.1298 103.428 37.8192Z" fill="#FF8400"/>
<path d="M43.713 58.2967C41.6926 56.1356 39.9471 53.715 38.5322 51.091C42.5515 52.2505 46.6167 51.8355 50.6032 49.8467C54.2217 48.0413 57.7146 48.0413 61.333 49.8467C66.3699 52.3598 71.5323 52.3598 76.5692 49.8467C80.1877 48.0413 83.6806 48.0413 87.2993 49.8467C91.3189 51.8524 95.4192 52.2571 99.4714 51.0614C98.0529 53.6992 96.3001 56.1316 94.2699 58.3018C92.7073 58.2057 91.1421 57.7611 89.5523 56.9676C84.5153 54.4549 79.3529 54.4549 74.3161 56.9676C70.6976 58.7729 67.2047 58.7729 63.5862 56.9676C58.5494 54.4549 53.3869 54.4549 48.35 56.9676C46.7877 57.7473 45.2487 58.1904 43.713 58.2967Z" fill="#FF8400"/>
<path d="M103.485 32.477C102.413 32.7835 101.345 33.202 100.281 33.7323C96.6629 35.5377 93.1702 35.5377 89.5517 33.7323C84.5147 31.2194 79.3523 31.2194 74.3155 33.7323C70.697 35.5377 67.2041 35.5377 63.5856 33.7323C58.5488 31.2194 53.3863 31.2194 48.3494 33.7323C44.731 35.5377 41.2381 35.5377 37.6196 33.7323C36.5842 33.2158 35.5435 32.8054 34.4998 32.5012C35.6717 14.5101 50.667 0.279541 68.9933 0.279541C87.3115 0.279541 102.301 14.4973 103.485 32.477Z" fill="#FFAC2F"/>
</g>
<defs>
<clipPath id="clip0_153_523">
<rect width="137.699" height="121.929" fill="white" transform="translate(0.26709 0.279541)"/>
</clipPath>
</defs>
</svg>
