<svg width="138" height="123" viewBox="0 0 138 123" fill="none" xmlns="http://www.w3.org/2000/svg">
<g clip-path="url(#clip0_153_506)">
<path fill-rule="evenodd" clip-rule="evenodd" d="M1.2396 110.489V112.698H12.551V110.489H12.2857C10.4743 110.489 10.0324 109.826 10.0324 107.881V96.7027C10.8718 95.7749 12.3301 95.2005 13.6996 95.2005C15.7321 95.2005 17.1019 96.2167 17.1019 98.9562V107.881C17.1019 109.737 16.7927 110.489 14.8928 110.489H14.6719V112.698H25.6738V110.489H25.4529C23.332 110.489 22.846 109.693 22.846 107.572V97.3655C22.846 93.3447 20.6808 90.9145 16.7486 90.9145C13.744 90.9145 11.4022 92.4168 10.2534 94.5819H10.0324V85.2147C10.0324 83.5357 10.0324 81.8125 10.0766 80.3544H8.22079C6.27676 80.9288 2.38842 81.9892 0.267578 82.3427V84.331H1.63734C3.36044 84.331 4.28832 84.9496 4.28832 87.0263V107.881C4.28832 109.605 3.66964 110.444 1.46054 110.489H1.2396ZM46.16 106.512L46.1599 106.512C46.1599 109.163 44.8495 109.384 43.9658 109.384C43.0379 109.384 42.2718 108.942 42.2718 107.616L42.4042 97.9399V97.7632C42.4042 92.8145 38.9577 90.782 34.1859 90.782C28.751 90.782 25.614 93.7865 25.614 97.012C25.614 98.8678 26.8511 100.061 28.4418 100.061C29.8557 100.061 30.9604 99.0445 30.9604 97.7632C30.9604 97.2747 30.8747 96.921 30.7936 96.5859L30.7936 96.5859C30.7205 96.2844 30.6512 95.998 30.6512 95.6423C30.6512 94.3168 31.6673 93.2563 33.6558 93.2563C35.6439 93.2563 36.8369 94.6702 36.8369 96.9237V100.458L33.1254 101.431C28.9278 102.535 25.835 104.082 25.835 107.881C25.835 110.886 28.4418 113.184 31.6232 113.184C34.3627 113.184 36.2626 111.505 37.102 109.207H37.3229V109.295C37.4115 111.991 39.2672 113.316 41.2995 113.316C42.091 113.316 42.8205 113.081 43.4776 112.698H54.997V110.489H54.776C52.5669 110.489 51.9041 109.649 51.9041 107.881V85.2147C51.9041 83.5357 51.9041 81.8125 51.9482 80.3544H50.0925C48.1484 80.9288 44.2601 81.9893 42.1392 82.3427V84.331H43.509C45.2321 84.331 46.16 84.9496 46.16 87.0263V106.512ZM36.8369 102.624V107.086C36.2626 108.014 35.2462 108.854 33.8323 108.854C32.3301 108.854 31.1813 107.837 31.1813 106.379C31.1813 104.612 32.5952 103.816 34.937 103.154L36.8369 102.624ZM63.2753 113.36C68.4008 113.36 71.4054 109.163 71.8028 104.303H69.9471C69.4611 106.158 67.6497 107.837 64.9984 107.837C61.1104 107.837 58.5477 104.568 58.5477 100.105C58.5477 96.2167 60.7126 93.8307 63.4963 93.8307C64.9543 93.8307 65.6613 94.5819 65.9705 95.4214C66.1244 95.8215 66.1711 96.2432 66.2152 96.6414C66.2344 96.8148 66.2531 96.9838 66.2799 97.1446C66.5009 98.3818 67.4288 99.3538 68.7985 99.3538C70.6543 99.3538 71.7146 98.0725 71.7146 96.3934C71.7146 95.4218 71.418 94.5068 70.8742 93.7087C72.3816 93.9712 72.9441 95.1541 73.6436 96.747L80.5806 112.344L80.1388 113.449C79.2991 115.57 78.0176 116.586 76.1622 116.586C75.7137 116.586 75.3169 116.524 74.9068 116.46L74.9068 116.46C74.4683 116.392 74.0148 116.321 73.4668 116.321C71.6551 116.321 70.3295 117.249 70.3295 118.928C70.3295 120.739 71.8319 122.021 74.6156 122.021C78.6363 122.021 80.934 119.767 82.8339 114.951L89.9919 96.7912C90.743 94.847 91.4499 93.6982 93.3057 93.654V91.3564H85.0433V93.654H85.6175C86.8105 93.654 87.385 94.0959 87.385 94.9796C87.385 95.4214 87.2524 95.9958 86.9873 96.6586L83.4526 106.114L79.741 96.8795C79.4759 96.2609 79.3433 95.6865 79.3433 95.2447C79.3433 94.2284 79.962 93.654 81.2432 93.654H81.7736V91.3564H69.2343H67.7036C66.7072 90.9887 65.5574 90.782 64.2915 90.782C58.5032 90.782 53.6429 95.2888 53.6429 102.491C53.6429 108.367 57.4871 113.36 63.2753 113.36ZM102.525 113.36C108.357 113.36 113.571 108.765 113.571 102.049C113.571 95.3331 108.357 90.7379 102.525 90.7379C96.6041 90.7379 91.4345 95.3331 91.4345 102.049C91.4345 108.765 96.6041 113.36 102.525 113.36ZM102.525 110.268C99.4318 110.268 97.8855 107.086 97.8855 102.049C97.8855 97.1447 99.3436 93.875 102.525 93.875C105.574 93.875 107.164 97.0121 107.164 102.049C107.164 106.954 105.662 110.268 102.525 110.268ZM113.298 112.698V110.489H113.386C115.684 110.489 116.347 109.693 116.347 107.882V97.3215C116.347 95.4216 115.463 94.803 113.696 94.803H112.9V92.8588C114.426 92.5469 116.984 91.8814 118.933 91.3744C119.469 91.2351 119.958 91.1078 120.367 91.0031H122.091V94.582H122.312C123.461 92.417 125.802 90.9147 128.763 90.9147C132.739 90.9147 134.904 93.3448 134.904 97.3657V107.572C134.904 109.693 135.435 110.489 137.555 110.489H137.966V112.698H126.774V110.489H126.995C128.851 110.489 129.16 109.737 129.16 107.882V99.0005C129.16 96.1727 127.746 95.2006 125.758 95.2006C124.388 95.2006 122.93 95.8192 122.091 96.7029V107.882C122.091 109.826 122.533 110.489 124.344 110.489H124.609V112.698H113.298Z" fill="#212324"/>
<path d="M48.3286 62.4966C54.0929 66.7926 61.2455 69.3364 68.9935 69.3364C76.7293 69.3364 83.8716 66.8003 89.6311 62.5166C88.8513 62.2493 88.0736 61.9217 87.2989 61.5354C83.6802 59.7301 80.1873 59.7301 76.5688 61.5354C71.5319 64.0485 66.3695 64.0485 61.3326 61.5354C57.7142 59.7301 54.2213 59.7301 50.6028 61.5354C49.8473 61.9125 49.0889 62.2329 48.3286 62.4966Z" fill="#F44544"/>
<path d="M103.428 37.8902C103.131 38.0145 102.834 38.1512 102.535 38.3001C97.4983 40.813 92.3356 40.813 87.2991 38.3001C83.6804 36.4947 80.1875 36.4947 76.569 38.3001C71.5321 40.813 66.3697 40.813 61.3329 38.3001C57.7144 36.4947 54.2215 36.4947 50.603 38.3001C45.5661 40.813 40.4037 40.813 35.3669 38.3001C35.0982 38.166 34.8302 38.0419 34.5627 37.9278C34.7679 40.2381 35.2014 42.4829 35.8404 44.6397C36.4351 44.8656 37.0284 45.1261 37.62 45.4212C41.2385 47.2265 44.7314 47.2265 48.3498 45.4212C53.3867 42.9082 58.5492 42.9082 63.586 45.4212C67.2045 47.2265 70.6974 47.2265 74.3159 45.4212C79.3527 42.9082 84.5151 42.9082 89.5522 45.4212C93.1706 47.2265 96.6633 47.2265 100.282 45.4212C100.906 45.1101 101.531 44.8375 102.158 44.6035C102.794 42.4461 103.225 40.2008 103.428 37.8902Z" fill="#FF8400"/>
<path d="M43.713 58.3677C41.6926 56.2067 39.9471 53.7861 38.5322 51.162C42.5515 52.3215 46.6167 51.9066 50.6032 49.9177C54.2217 48.1124 57.7146 48.1124 61.333 49.9177C66.3699 52.4309 71.5323 52.4309 76.5692 49.9177C80.1877 48.1124 83.6806 48.1124 87.2993 49.9177C91.3189 51.9235 95.4192 52.3282 99.4714 51.1324C98.0529 53.7702 96.3001 56.2026 94.2699 58.3728C92.7073 58.2768 91.1421 57.8322 89.5523 57.0386C84.5153 54.526 79.3529 54.526 74.3161 57.0386C70.6976 58.844 67.2047 58.844 63.5862 57.0386C58.5494 54.526 53.3869 54.526 48.35 57.0386C46.7877 57.8184 45.2487 58.2614 43.713 58.3677Z" fill="#FF8400"/>
<path d="M103.485 32.548C102.413 32.8545 101.345 33.273 100.281 33.8034C96.6629 35.6088 93.1702 35.6088 89.5517 33.8034C84.5147 31.2904 79.3523 31.2904 74.3155 33.8034C70.697 35.6088 67.2041 35.6088 63.5856 33.8034C58.5488 31.2904 53.3863 31.2904 48.3494 33.8034C44.731 35.6088 41.2381 35.6088 37.6196 33.8034C36.5842 33.2869 35.5435 32.8765 34.4998 32.5723C35.6717 14.5811 50.667 0.350586 68.9933 0.350586C87.3115 0.350586 102.301 14.5683 103.485 32.548Z" fill="#FFAC2F"/>
</g>
<defs>
<clipPath id="clip0_153_506">
<rect width="137.699" height="121.929" fill="white" transform="translate(0.26709 0.350586)"/>
</clipPath>
</defs>
</svg>
