<?xml version="1.0" encoding="UTF-8"?>
<svg xmlns="http://www.w3.org/2000/svg" version="1.1" viewBox="0 0 71 71">
  <defs>
    <style>
      .cls-1 {
        fill: none;
      }

      .cls-2 {
        fill: #f44544;
      }

      .cls-3 {
        fill: #ff8400;
      }

      .cls-4 {
        fill: #ffac2f;
      }
    </style>
  </defs>
  <!-- Generator: Adobe Illustrator 28.6.0, SVG Export Plug-In . SVG Version: 1.2.0 Build 709)  -->
  <g>
    <g id="Layer_1">
      <polyline class="cls-1" points="70.4 70.5 .4 70.5 .4 .5"/>
      <g>
        <path class="cls-2" d="M14.7,63.2c5.8,4.3,12.9,6.8,20.7,6.8s14.9-2.5,20.6-6.8c-.8-.3-1.6-.6-2.3-1-3.6-1.8-7.1-1.8-10.7,0-5,2.5-10.2,2.5-15.2,0-3.6-1.8-7.1-1.8-10.7,0-.8.4-1.5.7-2.3,1Z"/>
        <path class="cls-3" d="M69.8,38.6c-.3.1-.6.3-.9.4-5,2.5-10.2,2.5-15.2,0-3.6-1.8-7.1-1.8-10.7,0-5,2.5-10.2,2.5-15.2,0-3.6-1.8-7.1-1.8-10.7,0-5,2.5-10.2,2.5-15.2,0-.3-.1-.5-.3-.8-.4.2,2.3.6,4.6,1.3,6.7.6.2,1.2.5,1.8.8,3.6,1.8,7.1,1.8,10.7,0,5-2.5,10.2-2.5,15.2,0,3.6,1.8,7.1,1.8,10.7,0,5-2.5,10.2-2.5,15.2,0,3.6,1.8,7.1,1.8,10.7,0,.6-.3,1.2-.6,1.9-.8.6-2.2,1.1-4.4,1.3-6.7Z"/>
        <path class="cls-3" d="M10.1,59.1c-2-2.2-3.8-4.6-5.2-7.2,4,1.2,8.1.7,12.1-1.2,3.6-1.8,7.1-1.8,10.7,0,5,2.5,10.2,2.5,15.2,0,3.6-1.8,7.1-1.8,10.7,0,4,2,8.1,2.4,12.2,1.2-1.4,2.6-3.2,5.1-5.2,7.2-1.6,0-3.1-.5-4.7-1.3-5-2.5-10.2-2.5-15.2,0-3.6,1.8-7.1,1.8-10.7,0-5-2.5-10.2-2.5-15.2,0-1.6.8-3.1,1.2-4.6,1.3Z"/>
        <path class="cls-4" d="M69.9,33.2c-1.1.3-2.1.7-3.2,1.3-3.6,1.8-7.1,1.8-10.7,0-5-2.5-10.2-2.5-15.2,0-3.6,1.8-7.1,1.8-10.7,0-5-2.5-10.2-2.5-15.2,0-3.6,1.8-7.1,1.8-10.7,0-1-.5-2.1-.9-3.1-1.2C2.1,15.3,17.1,1,35.4,1s33.3,14.2,34.5,32.2Z"/>
      </g>
    </g>
  </g>
</svg>