<svg width="254" height="59" viewBox="0 0 254 59" fill="none" xmlns="http://www.w3.org/2000/svg">
<g clip-path="url(#clip0_153_235)">
<path fill-rule="evenodd" clip-rule="evenodd" d="M70.2244 42.9195V45.8865H85.4165V42.9195H85.0601C82.6273 42.9195 82.0338 42.0293 82.0338 39.418V24.4043C83.1611 23.1581 85.1197 22.3866 86.959 22.3866C89.6889 22.3866 91.5286 23.7515 91.5286 27.4308V39.418C91.5286 41.9104 91.1133 42.9195 88.5616 42.9195H88.2649V45.8865H103.041V42.9195H102.745C99.8961 42.9195 99.2434 41.8511 99.2434 39.0027V25.2944C99.2434 19.8942 96.3353 16.6303 91.0541 16.6303C87.0187 16.6303 83.8735 18.648 82.3306 21.5558H82.0338V8.97501C82.0338 6.71997 82.0338 4.40559 82.0931 2.44727H79.6007C76.9897 3.21873 71.7674 4.64297 68.9189 5.11771V7.78814H70.7586C73.0729 7.78814 74.3191 8.61896 74.3191 11.4081V39.418C74.3191 41.7326 73.4881 42.8599 70.5212 42.9195H70.2244ZM130.556 37.6273V11.4081C130.556 8.61901 129.31 7.78819 126.995 7.78819H125.156V5.11776C128.004 4.64302 133.227 3.21877 135.837 2.44731H138.33C138.271 4.40564 138.271 6.72002 138.271 8.97506V39.418C138.271 41.7919 139.161 42.9196 142.128 42.9196H142.425V45.8865H126.953C126.071 46.402 125.091 46.7174 124.028 46.7174C121.299 46.7174 118.806 44.937 118.687 41.3169V41.1983H118.391C117.263 44.2842 114.712 46.5392 111.032 46.5392C106.759 46.5392 103.258 43.4533 103.258 39.4179C103.258 34.3146 107.412 32.2375 113.05 30.754L118.035 29.4484V24.7009C118.035 21.6744 116.432 19.7755 113.762 19.7755C111.092 19.7755 109.727 21.1997 109.727 22.98C109.727 23.4578 109.82 23.8424 109.918 24.2473L109.918 24.2473C110.027 24.6974 110.142 25.1725 110.142 25.8284C110.142 27.5494 108.658 28.9143 106.759 28.9143C104.623 28.9143 102.961 27.312 102.961 24.8196C102.961 20.4875 107.175 16.4522 114.474 16.4522C120.883 16.4522 125.512 19.182 125.512 25.8284V26.0658L125.334 39.0619C125.334 40.8423 126.363 41.4358 127.609 41.4358C128.791 41.4358 130.54 41.1418 130.556 37.6273ZM118.035 32.3562V38.3499C117.263 39.5961 115.898 40.7238 113.999 40.7238C111.982 40.7238 110.439 39.3586 110.439 37.4004C110.439 35.0266 112.338 33.9585 115.483 33.0683L118.035 32.3562ZM153.543 46.7767C160.427 46.7767 164.462 41.1391 164.996 34.6113H162.504C161.851 37.1037 159.418 39.3586 155.857 39.3586C150.636 39.3586 147.194 34.9673 147.194 28.9737C147.194 23.7514 150.101 20.5469 153.84 20.5469C155.798 20.5469 156.748 21.5558 157.163 22.6833C157.37 23.2207 157.432 23.787 157.492 24.3218C157.517 24.5547 157.543 24.7817 157.579 24.9977C157.875 26.6593 159.122 27.9648 160.961 27.9648C163.454 27.9648 164.878 26.2439 164.878 23.9888C164.878 22.6838 164.479 21.4548 163.749 20.383C165.774 20.7354 166.529 22.3242 167.469 24.4636L176.786 45.412L176.192 46.8952C175.064 49.7437 173.343 51.1088 170.851 51.1088C170.249 51.1088 169.716 51.0257 169.165 50.9397C168.576 50.8479 167.967 50.7528 167.231 50.7528C164.798 50.7528 163.018 51.999 163.018 54.254C163.018 56.6871 165.036 58.4079 168.774 58.4079C174.174 58.4079 177.26 55.3813 179.812 48.9131L189.426 24.523C190.434 21.9119 191.384 20.3689 193.876 20.3096V17.2237H182.779V20.3096H183.551C185.153 20.3096 185.924 20.903 185.924 22.0899C185.924 22.6833 185.746 23.4548 185.39 24.3449L180.643 37.0444L175.658 24.6416C175.302 23.8108 175.124 23.0394 175.124 22.4459C175.124 21.081 175.955 20.3096 177.675 20.3096H178.388V17.2237H161.547H159.491C158.152 16.7299 156.608 16.4522 154.908 16.4522C147.134 16.4522 140.606 22.5052 140.606 32.1782C140.606 40.0707 145.769 46.7767 153.543 46.7767ZM206.258 46.7768C214.091 46.7768 221.094 40.605 221.094 31.5849C221.094 22.5647 214.091 16.3931 206.258 16.3931C198.306 16.3931 191.363 22.5647 191.363 31.5849C191.363 40.605 198.306 46.7768 206.258 46.7768ZM206.258 42.6229C202.104 42.6229 200.027 38.35 200.027 31.5849C200.027 24.9978 201.985 20.6064 206.258 20.6064C210.353 20.6064 212.489 24.8198 212.489 31.5849C212.489 38.172 210.471 42.6229 206.258 42.6229ZM220.727 45.8866V42.9197H220.846C223.932 42.9197 224.822 41.8513 224.822 39.4181V25.2352C224.822 22.6835 223.635 21.8526 221.261 21.8526H220.193V19.2416C222.242 18.8225 225.678 17.9287 228.296 17.2478C229.015 17.0607 229.672 16.8898 230.222 16.7491H232.537V21.5559H232.833C234.376 18.6481 237.521 16.6304 241.497 16.6304C246.838 16.6304 249.746 19.8943 249.746 25.2945V39.0028C249.746 41.8513 250.458 42.9197 253.307 42.9197H253.858V45.8866H238.827V42.9197H239.124C241.616 42.9197 242.031 41.9105 242.031 39.4181V27.4902C242.031 23.6923 240.132 22.3867 237.462 22.3867C235.622 22.3867 233.664 23.2175 232.537 24.4044V39.4181C232.537 42.0294 233.13 42.9197 235.563 42.9197H235.919V45.8866H220.727Z" fill="#212324"/>
<path d="M51.2498 28.7943C51.029 28.8867 50.8079 28.9883 50.586 29.099C46.8409 30.9675 43.0024 30.9675 39.2576 29.099C36.567 27.7567 33.97 27.7567 31.2795 29.099C27.5345 30.9675 23.6961 30.9675 19.9511 29.099C17.2607 27.7567 14.6636 27.7567 11.9732 29.099C8.22817 30.9675 4.38979 30.9675 0.644751 29.099C0.444969 28.9993 0.245704 28.9071 0.046875 28.8222C0.199427 30.54 0.521702 32.2091 0.996863 33.8127C1.439 33.9806 1.88014 34.1743 2.32 34.3938C5.01043 35.7361 7.60749 35.7361 10.2979 34.3938C14.0429 32.5253 17.8813 32.5253 21.6264 34.3938C24.3168 35.7361 26.9139 35.7361 29.6043 34.3938C33.3493 32.5253 37.1877 32.5253 40.9328 34.3938C43.6232 35.7361 46.2201 35.7361 48.9105 34.3938C49.3744 34.1625 49.8391 33.9598 50.3052 33.7858C50.7787 32.1817 51.0989 30.5123 51.2498 28.7943Z" fill="#FF8400"/>
<path d="M6.8501 44.0199C5.34784 42.4131 4.05003 40.6133 2.99805 38.6622C5.98649 39.5244 9.00905 39.2158 11.9731 37.7371C14.6635 36.3948 17.2606 36.3948 19.951 37.7371C23.696 39.6057 27.5344 39.6057 31.2794 37.7371C33.9699 36.3948 36.5669 36.3948 39.2575 37.7371C42.2462 39.2284 45.2948 39.5293 48.3078 38.6402C47.2531 40.6015 45.9499 42.41 44.4403 44.0236C43.2785 43.9522 42.1147 43.6217 40.9327 43.0316C37.1876 41.1634 33.3492 41.1634 29.6042 43.0316C26.9138 44.374 24.3167 44.374 21.6263 43.0316C17.8813 41.1634 14.0428 41.1634 10.2978 43.0316C9.13618 43.6114 7.99194 43.9408 6.8501 44.0199Z" fill="#FF8400"/>
<path d="M10.2822 47.0898C14.5681 50.284 19.8862 52.1754 25.6471 52.1754C31.3988 52.1754 36.7093 50.2897 40.9916 47.1047C40.4118 46.9059 39.8336 46.6624 39.2576 46.3752C36.567 45.0328 33.9699 45.0328 31.2794 46.3752C27.5344 48.2437 23.696 48.2437 19.951 46.3752C17.2606 45.0328 14.6635 45.0328 11.9731 46.3752C11.4114 46.6556 10.8475 46.8938 10.2822 47.0898Z" fill="#F44544"/>
<path d="M51.2924 24.8224C50.4953 25.0503 49.7008 25.3614 48.9101 25.7558C46.2197 27.0981 43.6228 27.0981 40.9325 25.7558C37.1873 23.8873 33.3489 23.8873 29.6039 25.7558C26.9135 27.0981 24.3164 27.0981 21.626 25.7558C17.881 23.8873 14.0426 23.8873 10.2976 25.7558C7.60715 27.0981 5.01008 27.0981 2.31966 25.7558C1.54984 25.3717 0.776084 25.0666 0 24.8404C0.871343 11.4635 12.0208 0.882812 25.6468 0.882812C39.2668 0.882812 50.412 11.454 51.2924 24.8224Z" fill="#FFAC2F"/>
</g>
<defs>
<clipPath id="clip0_153_235">
<rect width="253.858" height="57.6951" fill="white" transform="translate(0 0.882812)"/>
</clipPath>
</defs>
</svg>
