<svg width="254" height="59" viewBox="0 0 254 59" fill="none" xmlns="http://www.w3.org/2000/svg">
<g clip-path="url(#clip0_153_258)">
<path fill-rule="evenodd" clip-rule="evenodd" d="M70.2244 42.6146V45.5816H85.4165V42.6146H85.0601C82.6273 42.6146 82.0338 41.7244 82.0338 39.113V24.0993C83.1611 22.8531 85.1197 22.0817 86.959 22.0817C89.6889 22.0817 91.5286 23.4466 91.5286 27.1259V39.113C91.5286 41.6055 91.1133 42.6146 88.5616 42.6146H88.2649V45.5816H103.041V42.6146H102.745C99.8961 42.6146 99.2434 41.5462 99.2434 38.6977V24.9895C99.2434 19.5892 96.3353 16.3254 91.0541 16.3254C87.0187 16.3254 83.8735 18.3431 82.3306 21.2509H82.0338V8.67008C82.0338 6.41504 82.0338 4.10066 82.0931 2.14233H79.6007C76.9897 2.91379 71.7674 4.33804 68.9189 4.81278V7.48321H70.7586C73.0729 7.48321 74.3191 8.31403 74.3191 11.1032V39.113C74.3191 41.4276 73.4881 42.5549 70.5212 42.6146H70.2244ZM130.556 37.3223V11.1032C130.556 8.31408 129.31 7.48326 126.995 7.48326H125.156V4.81283C128.004 4.33809 133.227 2.91384 135.837 2.14238H138.33C138.271 4.10071 138.271 6.41509 138.271 8.67012V39.1131C138.271 41.487 139.161 42.6146 142.128 42.6146H142.425V45.5816H126.953C126.071 46.0971 125.091 46.4124 124.028 46.4124C121.299 46.4124 118.806 44.632 118.687 41.0119V40.8934H118.391C117.263 43.9793 114.712 46.2343 111.032 46.2343C106.759 46.2343 103.258 43.1484 103.258 39.113C103.258 34.0096 107.412 31.9326 113.05 30.449L118.035 29.1435V24.396C118.035 21.3695 116.432 19.4705 113.762 19.4705C111.092 19.4705 109.727 20.8947 109.727 22.675C109.727 23.1528 109.82 23.5374 109.918 23.9424L109.918 23.9424C110.027 24.3924 110.142 24.8675 110.142 25.5235C110.142 27.2445 108.658 28.6094 106.759 28.6094C104.623 28.6094 102.961 27.0071 102.961 24.5147C102.961 20.1826 107.175 16.1473 114.474 16.1473C120.883 16.1473 125.512 18.8771 125.512 25.5235V25.7609L125.334 38.757C125.334 40.5374 126.363 41.1309 127.609 41.1309C128.791 41.1309 130.54 40.8368 130.556 37.3223ZM118.035 32.0513V38.045C117.263 39.2912 115.898 40.4188 113.999 40.4188C111.982 40.4188 110.439 39.0537 110.439 37.0954C110.439 34.7217 112.338 33.6535 115.483 32.7634L118.035 32.0513ZM153.543 46.4717C160.427 46.4717 164.462 40.8341 164.996 34.3063H162.504C161.851 36.7987 159.418 39.0537 155.857 39.0537C150.636 39.0537 147.194 34.6624 147.194 28.6687C147.194 23.4465 150.101 20.242 153.84 20.242C155.798 20.242 156.748 21.2508 157.163 22.3783C157.37 22.9158 157.432 23.482 157.492 24.0169C157.517 24.2498 157.543 24.4767 157.579 24.6927C157.875 26.3543 159.122 27.6599 160.961 27.6599C163.454 27.6599 164.878 25.9389 164.878 23.6839C164.878 22.3788 164.479 21.1499 163.749 20.0781C165.774 20.4305 166.529 22.0193 167.469 24.1587L176.786 45.107L176.192 46.5903C175.064 49.4388 173.343 50.8039 170.851 50.8039C170.249 50.8039 169.716 50.7207 169.165 50.6348C168.576 50.5429 167.967 50.4479 167.231 50.4479C164.798 50.4479 163.018 51.6941 163.018 53.9491C163.018 56.3822 165.036 58.103 168.774 58.103C174.174 58.103 177.26 55.0763 179.812 48.6082L189.426 24.218C190.434 21.6069 191.384 20.064 193.876 20.0047V16.9188H182.779V20.0047H183.551C185.153 20.0047 185.924 20.5981 185.924 21.785C185.924 22.3784 185.746 23.1498 185.39 24.04L180.643 36.7395L175.658 24.3367C175.302 23.5059 175.124 22.7344 175.124 22.141C175.124 20.7761 175.955 20.0047 177.675 20.0047H178.388V16.9188H161.547H159.491C158.152 16.4249 156.608 16.1473 154.908 16.1473C147.134 16.1473 140.606 22.2003 140.606 31.8732C140.606 39.7657 145.769 46.4717 153.543 46.4717ZM206.258 46.4719C214.091 46.4719 221.094 40.3001 221.094 31.28C221.094 22.2598 214.091 16.0881 206.258 16.0881C198.306 16.0881 191.363 22.2598 191.363 31.28C191.363 40.3001 198.306 46.4719 206.258 46.4719ZM206.258 42.318C202.104 42.318 200.027 38.0451 200.027 31.28C200.027 24.6929 201.985 20.3015 206.258 20.3015C210.353 20.3015 212.489 24.5148 212.489 31.28C212.489 37.8671 210.471 42.318 206.258 42.318ZM220.727 45.5817V42.6147H220.846C223.932 42.6147 224.822 41.5463 224.822 39.1132V24.9303C224.822 22.3785 223.635 21.5477 221.261 21.5477H220.193V18.9366C222.242 18.5176 225.678 17.6238 228.296 16.9428C229.015 16.7558 229.672 16.5849 230.222 16.4442H232.537V21.251H232.833C234.376 18.3432 237.521 16.3255 241.497 16.3255C246.838 16.3255 249.746 19.5894 249.746 24.9896V38.6979C249.746 41.5463 250.458 42.6147 253.307 42.6147H253.858V45.5817H238.827V42.6147H239.124C241.616 42.6147 242.031 41.6056 242.031 39.1132V27.1853C242.031 23.3874 240.132 22.0818 237.462 22.0818C235.622 22.0818 233.664 22.9126 232.537 24.0995V39.1132C232.537 41.7245 233.13 42.6147 235.563 42.6147H235.919V45.5817H220.727Z" fill="#F9F8F7"/>
<path d="M51.2498 28.4894C51.029 28.5818 50.8079 28.6834 50.586 28.7941C46.8409 30.6626 43.0024 30.6626 39.2576 28.7941C36.567 27.4518 33.97 27.4518 31.2795 28.7941C27.5345 30.6626 23.6961 30.6626 19.9511 28.7941C17.2607 27.4518 14.6636 27.4518 11.9732 28.7941C8.22817 30.6626 4.38979 30.6626 0.644751 28.7941C0.444969 28.6944 0.245704 28.6022 0.046875 28.5173C0.199427 30.235 0.521702 31.9042 0.996863 33.5078C1.439 33.6757 1.88014 33.8694 2.32 34.0888C5.01043 35.4311 7.60749 35.4311 10.2979 34.0888C14.0429 32.2204 17.8813 32.2204 21.6264 34.0888C24.3168 35.4311 26.9139 35.4311 29.6043 34.0888C33.3493 32.2204 37.1877 32.2204 40.9328 34.0888C43.6232 35.4311 46.2201 35.4311 48.9105 34.0888C49.3744 33.8575 49.8391 33.6549 50.3052 33.4809C50.7787 31.8768 51.0989 30.2073 51.2498 28.4894Z" fill="#FF8400"/>
<path d="M6.8501 43.7149C5.34784 42.1081 4.05003 40.3083 2.99805 38.3573C5.98649 39.2194 9.00905 38.9109 11.9731 37.4321C14.6635 36.0898 17.2606 36.0898 19.951 37.4321C23.696 39.3007 27.5344 39.3007 31.2794 37.4321C33.9699 36.0898 36.5669 36.0898 39.2575 37.4321C42.2462 38.9235 45.2948 39.2244 48.3078 38.3353C47.2531 40.2966 45.9499 42.1051 44.4403 43.7187C43.2785 43.6473 42.1147 43.3167 40.9327 42.7267C37.1876 40.8585 33.3492 40.8585 29.6042 42.7267C26.9138 44.069 24.3167 44.069 21.6263 42.7267C17.8813 40.8585 14.0428 40.8585 10.2978 42.7267C9.13618 43.3065 7.99194 43.6359 6.8501 43.7149Z" fill="#FF8400"/>
<path d="M10.2822 46.7849C14.5681 49.9791 19.8862 51.8704 25.6471 51.8704C31.3988 51.8704 36.7093 49.9848 40.9916 46.7997C40.4118 46.601 39.8336 46.3575 39.2576 46.0702C36.567 44.7279 33.9699 44.7279 31.2794 46.0702C27.5344 47.9388 23.696 47.9388 19.951 46.0702C17.2606 44.7279 14.6635 44.7279 11.9731 46.0702C11.4114 46.3506 10.8475 46.5889 10.2822 46.7849Z" fill="#F44544"/>
<path d="M51.2924 24.5175C50.4953 24.7453 49.7008 25.0565 48.9101 25.4508C46.2197 26.7932 43.6228 26.7932 40.9325 25.4508C37.1873 23.5824 33.3489 23.5824 29.6039 25.4508C26.9135 26.7932 24.3164 26.7932 21.626 25.4508C17.881 23.5824 14.0426 23.5824 10.2976 25.4508C7.60715 26.7932 5.01008 26.7932 2.31966 25.4508C1.54984 25.0668 0.776084 24.7616 0 24.5355C0.871343 11.1586 12.0208 0.577881 25.6468 0.577881C39.2668 0.577881 50.412 11.1491 51.2924 24.5175Z" fill="#FFAC2F"/>
</g>
<defs>
<clipPath id="clip0_153_258">
<rect width="253.858" height="57.6951" fill="white" transform="translate(0 0.577881)"/>
</clipPath>
</defs>
</svg>
