<?xml version="1.0" encoding="UTF-8"?>
<svg xmlns="http://www.w3.org/2000/svg" version="1.1" viewBox="0 0 358 317">
  <defs>
    <style>
      .cls-1 {
        fill: #ffa400;
      }

      .cls-2 {
        fill: #ff4438;
      }

      .cls-3 {
        fill: #ff6c0e;
      }

      .cls-4 {
        fill: #25282a;
        fill-rule: evenodd;
      }
    </style>
  </defs>
  <!-- Generator: Adobe Illustrator 28.6.0, SVG Export Plug-In . SVG Version: 1.2.0 Build 709)  -->
  <g>
    <g id="Layer_1">
      <path class="cls-4" d="M2.52712,286.345v5.74301h29.40828v-5.74301h-.6899c-4.7093,0-5.8581-1.72299-5.8581-6.77798v-29.06302c2.52737-2.52525,5.96145-3.93216,9.5341-3.90601,5.2844,0,8.8456,2.642,8.8456,9.76401v23.20499c0,4.82501-.8039,6.77798-5.7434,6.77798h-.5744v5.74301h28.6037v-5.74301h-.5744c-5.5139,0-6.7775-2.06799-6.7775-7.582v-26.53596c0-10.45399-5.6294-16.772-15.8526-16.772-7.8116,0-13.8999,3.90601-16.8867,9.535h-.5744v-24.354c0-4.36501,0-8.845.1147-12.636h-4.8247c-5.0543,1.493-15.16348,4.25-20.6774,5.16901v5.17h3.56122c4.47982,0,6.89218,1.608,6.89218,7.007v54.22101c0,4.48001-1.60847,6.66299-7.35186,6.77802l-.57442-.00003ZM119.315,276.00601h0c0,6.892-3.407,7.46701-5.705,7.46701-2.412,0-4.404-1.14899-4.404-4.595l.345-25.158v-.459c0-12.866-8.961-18.151-21.3669-18.151-14.1301,0-22.2859,7.812-22.2859,16.198,0,4.82501,3.2163,7.92599,7.3519,7.92599,3.6759,0,6.548-2.642,6.548-5.97301-.0118-1.03477-.15757-2.06367-.4337-3.061-.22626-.7988-.35065-1.623-.3702-2.453,0-3.44701,2.6419-6.20399,7.8116-6.20399,5.1689,0,8.2705,3.67599,8.2705,9.535v9.19l-9.6496,2.52701c-10.9131,2.87201-18.9541,6.89301-18.9541,16.772,0,7.811,6.7775,13.785,15.0487,13.785,7.1225,0,12.062-4.36499,14.2441-10.33899h.5745v.23001c.2302,7.00699,5.0551,10.45401,10.3391,10.45401,1.99746-.01901,3.95306-.57474,5.662-1.60901h29.94899v-5.74301h-.57401c-5.744,0-7.467-2.18301-7.467-6.77802v-58.93102c0-4.36501,0-8.845.11501-12.636h-4.825c-5.054,1.493-15.163,4.25-20.677,5.16901v5.17h3.561c4.48,0,6.892,1.608,6.892,7.007v50.66ZM95.0763,265.897v11.60199c-1.61157,2.80197-4.57958,4.54822-7.8116,4.59601-3.9054,0-6.8922-2.64301-6.8922-6.43399,0-4.595,3.6759-6.66199,9.7643-8.38599l4.9395-1.37802ZM163.813,293.81201c13.326,0,21.13699-10.914,22.17101-23.54999h-4.825c-1.26401,4.82501-5.97301,9.19-12.866,9.19-10.108,0-16.771-8.50101-16.771-20.103,0-10.10899,5.629-16.312,12.866-16.312,3.78999,0,5.62801,1.953,6.43201,4.13499.34804,1.02545.56181,2.09164.636,3.172h.00101v.00101h0c.05.451.09801.89.168,1.30701.424,3.29083,3.22998,5.75229,6.548,5.74399,4.825,0,7.58099-3.33099,7.58099-7.696-.0031-2.49434-.76482-4.92874-2.18401-6.98,3.918.68201,5.381,3.757,7.19901,7.899l18.036,40.55101-1.149,2.871c-2.183,5.51401-5.515,8.15701-10.339,8.15701-1.09471-.02155-2.18591-.13123-3.263-.328-1.23604-.22253-2.48822-.3436-3.744-.362-4.71001,0-8.157,2.41299-8.157,6.77802,0,4.70999,3.90601,8.04102,11.144,8.04102,10.453,0,16.427-5.85901,21.366-18.38l18.61-47.213c1.953-5.05499,3.791-8.04201,8.61501-8.157v-5.97301h-21.48102v5.97301h1.493c3.10201,0,4.59599,1.149,4.59599,3.44701-.07622,1.50591-.42699,2.9852-1.035,4.36501l-9.189,24.58301-9.64999-24.009c-.61691-1.33624-.96809-2.77969-1.034-4.25,0-2.642,1.608-4.136,4.939-4.136h1.379v-5.97301h-36.58c-2.84573-1.01735-5.84903-1.52315-8.871-1.494-15.049,0-27.685,11.718-27.685,30.442.00002,15.27789,9.99501,28.25992,25.04301,28.25992ZM265.85699,293.81201c15.16299,0,28.71799-11.94699,28.71799-29.40799s-13.55499-29.408-28.71799-29.408c-15.394,0-28.834,11.94701-28.834,29.408s13.44,29.40799,28.834,29.40799ZM265.85699,285.771c-8.04199,0-12.062-8.272-12.062-21.367,0-12.75101,3.791-21.252,12.062-21.252,7.92599,0,12.06201,8.15601,12.06201,21.252,0,12.75101-3.90601,21.367-12.06201,21.367ZM293.866,292.08899v-5.74399h.229c5.974,0,7.69699-2.06799,7.69699-6.77798v-27.45502c0-4.94-2.298-6.548-6.892-6.548h-2.069v-5.054c3.966-.811,10.61801-2.54201,15.686-3.86,1.392-.362,2.664-.69299,3.728-.965h4.48099v9.30499h.57401c2.987-5.629,9.07501-9.535,16.771-9.535,10.33899,0,15.96899,6.31799,15.96899,16.772v26.53601c0,5.51401,1.37799,7.582,6.892,7.582h1.06802v5.74399h-29.09799v-5.74399h.57501c4.82501,0,5.629-1.953,5.629-6.77798v-23.09c0-7.35201-3.67599-9.879-8.84601-9.879-3.56219.02672-6.97699,1.42574-9.534,3.90601v29.06299c0,5.05499,1.14899,6.77802,5.858,6.77802h.69v5.74399l-29.40802-.00003Z"/>
      <path class="cls-2" d="M124.953,161.57201c31.86748,23.69044,75.49103,23.71117,107.381.05099-2.07515-.71503-4.1006-1.56689-6.063-2.55-9.408-4.694-18.489-4.694-27.897,0-13.095,6.533-26.517,6.533-39.612,0-9.408-4.694-18.489-4.694-27.896,0-1.91533.95903-3.89041,1.79375-5.91299,2.49901Z"/>
      <path class="cls-1" d="M268.354,83.7094c-2.87122.82912-5.65973,1.92167-8.32999,3.2637-9.408,4.6937-18.48801,4.6937-27.896,0-13.095-6.5334-26.517-6.5334-39.612,0-9.408,4.6937-18.489,4.6937-27.896,0-13.09599-6.5334-26.517-6.5334-39.613,0-9.407,4.6937-18.488,4.6937-27.8959,0-2.60251-1.30741-5.31711-2.3786-8.11113-3.2007C92.37717,34.24397,135.26564-3.16902,184.79408.20816c44.80032,3.05478,80.47368,38.70307,83.55992,83.50124Z"/>
      <path class="cls-3" d="M268.20401,97.5982c-.771.3233-1.54468.67854-2.32101,1.0657-13.095,6.5331-26.517,6.5331-39.61099,0-9.409-4.6938-18.49001-4.6938-27.897,0-13.09599,6.5331-26.517,6.5331-39.61301,0-9.407-4.6938-18.48801-4.6938-27.896,0-13.095,6.5331-26.517,6.5331-39.6119,0-.69859-.34861-1.39546-.67127-2.0906-.968.52349,5.9128,1.63628,11.75851,3.3218,17.4501,1.54601.587,3.08823,1.26434,4.6267,2.032,9.408,4.694,18.489,4.694,27.896,0,13.095-6.534,26.517-6.534,39.612,0,9.408,4.694,18.489,4.694,27.897,0,13.095-6.534,26.517-6.534,39.612,0,9.408,4.694,18.48801,4.694,27.896,0,1.58707-.7941,3.21503-1.50375,4.87701-2.126,1.67889-5.69352,2.78503-11.54046,3.302-17.4538Z"/>
      <path class="cls-3" d="M112.953,150.83701c-5.27551-5.64058-9.80271-11.93703-13.4699-18.73399,10.4499,3.015,21.0189,1.936,31.3829-3.235,9.408-4.694,18.489-4.694,27.896,0,13.09599,6.534,26.517,6.534,39.612,0,9.408-4.694,18.489-4.694,27.897,0,10.451,5.215,21.11099,6.267,31.646,3.158-3.6763,6.83205-8.22174,13.15932-13.52299,18.82401-4.28119-.31245-8.45409-1.49237-12.265-3.468-13.09599-6.533-26.517-6.533-39.612,0-9.408,4.69299-18.489,4.69299-27.897,0-13.095-6.533-26.517-6.533-39.612,0-3.74899,1.94086-7.84708,3.11537-12.05499,3.45499Z"/>
    </g>
  </g>
</svg>