<svg width="254" height="58" viewBox="0 0 254 58" fill="none" xmlns="http://www.w3.org/2000/svg">
<g clip-path="url(#clip0_153_143)">
<path fill-rule="evenodd" clip-rule="evenodd" d="M70.2244 42.2244V45.1914H85.4165V42.2244H85.0601C82.6273 42.2244 82.0338 41.3342 82.0338 38.7229V23.7092C83.1611 22.463 85.1197 21.6915 86.959 21.6915C89.6889 21.6915 91.5286 23.0564 91.5286 26.7357V38.7229C91.5286 41.2153 91.1133 42.2244 88.5616 42.2244H88.2649V45.1914H103.041V42.2244H102.745C99.8961 42.2244 99.2434 41.156 99.2434 38.3076V24.5993C99.2434 19.1991 96.3353 15.9352 91.0541 15.9352C87.0187 15.9352 83.8735 17.9529 82.3306 20.8607H82.0338V8.27994C82.0338 6.0249 82.0338 3.71052 82.0931 1.7522H79.6007C76.9897 2.52366 71.7674 3.9479 68.9189 4.42264V7.09307H70.7586C73.0729 7.09307 74.3191 7.9239 74.3191 10.713V38.7229C74.3191 41.0375 73.4881 42.1648 70.5212 42.2244H70.2244ZM130.556 36.9322V10.7131C130.556 7.92394 129.31 7.09312 126.995 7.09312H125.156V4.42269C128.004 3.94795 133.227 2.5237 135.837 1.75224H138.33C138.271 3.71057 138.271 6.02495 138.271 8.27999V38.7229C138.271 41.0968 139.161 42.2245 142.128 42.2245H142.425V45.1915H126.953C126.071 45.707 125.091 46.0223 124.028 46.0223C121.299 46.0223 118.806 44.2419 118.687 40.6218V40.5033H118.391C117.263 43.5892 114.712 45.8441 111.032 45.8441C106.759 45.8441 103.258 42.7582 103.258 38.7228C103.258 33.6195 107.412 31.5425 113.05 30.0589L118.035 28.7533V24.0059C118.035 20.9793 116.432 19.0804 113.762 19.0804C111.092 19.0804 109.727 20.5046 109.727 22.2849C109.727 22.7627 109.82 23.1473 109.918 23.5522L109.918 23.5523C110.027 24.0023 110.142 24.4774 110.142 25.1334C110.142 26.8543 108.658 28.2192 106.759 28.2192C104.623 28.2192 102.961 26.617 102.961 24.1246C102.961 19.7925 107.175 15.7571 114.474 15.7571C120.883 15.7571 125.512 18.487 125.512 25.1334V25.3708L125.334 38.3668C125.334 40.1473 126.363 40.7407 127.609 40.7407C128.791 40.7407 130.54 40.4467 130.556 36.9322ZM118.035 31.6611V37.6548C117.263 38.901 115.898 40.0287 113.999 40.0287C111.982 40.0287 110.439 38.6636 110.439 36.7053C110.439 34.3316 112.338 33.2634 115.483 32.3733L118.035 31.6611ZM153.543 46.0816C160.427 46.0816 164.462 40.444 164.996 33.9162H162.504C161.851 36.4086 159.418 38.6636 155.857 38.6636C150.636 38.6636 147.194 34.2723 147.194 28.2786C147.194 23.0564 150.101 19.8518 153.84 19.8518C155.798 19.8518 156.748 20.8607 157.163 21.9882C157.37 22.5256 157.432 23.0919 157.492 23.6268C157.517 23.8597 157.543 24.0866 157.579 24.3026C157.875 25.9642 159.122 27.2698 160.961 27.2698C163.454 27.2698 164.878 25.5488 164.878 23.2937C164.878 21.9887 164.479 20.7598 163.749 19.688C165.774 20.0404 166.529 21.6292 167.469 23.7686L176.786 44.7169L176.192 46.2002C175.064 49.0486 173.343 50.4137 170.851 50.4137C170.249 50.4137 169.716 50.3306 169.165 50.2447C168.576 50.1528 167.967 50.0577 167.231 50.0577C164.798 50.0577 163.018 51.304 163.018 53.5589C163.018 55.9921 165.036 57.7128 168.774 57.7128C174.174 57.7128 177.26 54.6862 179.812 48.2181L189.426 23.8279C190.434 21.2168 191.384 19.6739 193.876 19.6145V16.5287H182.779V19.6145H183.551C185.153 19.6145 185.924 20.208 185.924 21.3948C185.924 21.9883 185.746 22.7597 185.39 23.6499L180.643 36.3493L175.658 23.9466C175.302 23.1158 175.124 22.3443 175.124 21.7509C175.124 20.386 175.955 19.6145 177.675 19.6145H178.388V16.5287H161.547H159.491C158.152 16.0348 156.608 15.7571 154.908 15.7571C147.134 15.7571 140.606 21.8102 140.606 31.4831C140.606 39.3756 145.769 46.0816 153.543 46.0816ZM206.258 46.0817C214.091 46.0817 221.094 39.9099 221.094 30.8898C221.094 21.8697 214.091 15.698 206.258 15.698C198.306 15.698 191.363 21.8697 191.363 30.8898C191.363 39.9099 198.306 46.0817 206.258 46.0817ZM206.258 41.9278C202.104 41.9278 200.027 37.655 200.027 30.8898C200.027 24.3028 201.985 19.9113 206.258 19.9113C210.353 19.9113 212.489 24.1247 212.489 30.8898C212.489 37.4769 210.471 41.9278 206.258 41.9278ZM220.727 45.1916V42.2246H220.846C223.932 42.2246 224.822 41.1562 224.822 38.723V24.5401C224.822 21.9884 223.635 21.1576 221.261 21.1576H220.193V18.5465C222.242 18.1275 225.678 17.2336 228.296 16.5527C229.015 16.3657 229.672 16.1947 230.222 16.0541H232.537V20.8609H232.833C234.376 17.9531 237.521 15.9354 241.497 15.9354C246.838 15.9354 249.746 19.1992 249.746 24.5995V38.3078C249.746 41.1562 250.458 42.2246 253.307 42.2246H253.858V45.1916H238.827V42.2246H239.124C241.616 42.2246 242.031 41.2155 242.031 38.723V26.7952C242.031 22.9972 240.132 21.6917 237.462 21.6917C235.622 21.6917 233.664 22.5225 232.537 23.7093V38.723C232.537 41.3344 233.13 42.2246 235.563 42.2246H235.919V45.1916H220.727Z" fill="#F9F8F7"/>
<path fill-rule="evenodd" clip-rule="evenodd" d="M48.9101 25.0607C49.7008 24.6663 50.4953 24.3552 51.2924 24.1273C50.412 10.759 39.2668 0.187744 25.6468 0.187744C12.0208 0.187744 0.871343 10.7685 0 24.1453C0.776084 24.3715 1.54984 24.6766 2.31966 25.0607C5.01008 26.403 7.60715 26.403 10.2976 25.0607C14.0426 23.1922 17.881 23.1922 21.626 25.0607C24.3164 26.403 26.9135 26.403 29.6039 25.0607C33.3489 23.1922 37.1873 23.1922 40.9325 25.0607C43.6228 26.403 46.2197 26.403 48.9101 25.0607ZM50.5858 28.4041C50.8077 28.2933 51.0289 28.1917 51.2496 28.0993C51.0988 29.8173 50.7785 31.4867 50.3051 33.0908C49.8389 33.2648 49.3742 33.4675 48.9103 33.6988C46.2199 35.0411 43.623 35.0411 40.9326 33.6988C37.1875 31.8303 33.3491 31.8303 29.6041 33.6988C26.9137 35.0411 24.3166 35.0411 21.6262 33.6988C17.8812 31.8303 14.0428 31.8303 10.2977 33.6988C7.60732 35.0411 5.01025 35.0411 2.31983 33.6988C1.87997 33.4793 1.43882 33.2856 0.996688 33.1177C0.521527 31.5141 0.199252 29.845 0.0466998 28.1272C0.245529 28.2121 0.444794 28.3044 0.644575 28.4041C4.38962 30.2725 8.22799 30.2725 11.973 28.4041C14.6634 27.0617 17.2605 27.0617 19.9509 28.4041C23.6959 30.2725 27.5343 30.2725 31.2793 28.4041C33.9698 27.0617 36.5669 27.0617 39.2575 28.4041C43.0022 30.2725 46.8407 30.2725 50.5858 28.4041ZM2.99802 37.9672C4.05 39.9183 5.34781 41.718 6.85007 43.3248C7.99191 43.2458 9.13615 42.9164 10.2978 42.3366C14.0428 40.4684 17.8812 40.4684 21.6263 42.3366C24.3167 43.6789 26.9137 43.6789 29.6041 42.3366C33.3492 40.4684 37.1875 40.4684 40.9327 42.3366C42.1147 42.9266 43.2785 43.2572 44.4403 43.3286C45.9498 41.715 47.253 39.9065 48.3078 37.9452C45.2948 38.8343 42.2462 38.5334 39.2575 37.042C36.5669 35.6997 33.9698 35.6997 31.2794 37.042C27.5344 38.9106 23.696 38.9106 19.951 37.042C17.2606 35.6997 14.6635 35.6997 11.9731 37.042C9.00902 38.5208 5.98646 38.8293 2.99802 37.9672ZM10.2818 46.3948C14.5677 49.589 19.8859 51.4803 25.6467 51.4803C31.3984 51.4803 36.7089 49.5947 40.9912 46.4096C40.4114 46.2109 39.8332 45.9673 39.2572 45.6801C36.5666 44.3378 33.9695 44.3378 31.2791 45.6801C27.534 47.5487 23.6957 47.5487 19.9506 45.6801C17.2602 44.3378 14.6632 44.3378 11.9727 45.6801C11.411 45.9605 10.8472 46.1987 10.2818 46.3948Z" fill="url(#paint0_linear_153_143)"/>
</g>
<defs>
<linearGradient id="paint0_linear_153_143" x1="25.6462" y1="0.187744" x2="25.6462" y2="51.4803" gradientUnits="userSpaceOnUse">
<stop stop-color="#FFAC2F"/>
<stop offset="0.578245" stop-color="#FF8400"/>
<stop offset="1" stop-color="#F44544"/>
</linearGradient>
<clipPath id="clip0_153_143">
<rect width="253.858" height="57.6951" fill="white" transform="translate(0 0.187744)"/>
</clipPath>
</defs>
</svg>
