<svg width="254" height="59" viewBox="0 0 254 59" fill="none" xmlns="http://www.w3.org/2000/svg">
<g clip-path="url(#clip0_152_565)">
<path fill-rule="evenodd" clip-rule="evenodd" d="M70.2244 42.5294V45.4963H85.4165V42.5294H85.0601C82.6273 42.5294 82.0338 41.6392 82.0338 39.0278V24.0141C83.1611 22.7679 85.1197 21.9964 86.959 21.9964C89.6889 21.9964 91.5286 23.3614 91.5286 27.0406V39.0278C91.5286 41.5202 91.1133 42.5294 88.5616 42.5294H88.2649V45.4963H103.041V42.5294H102.745C99.8961 42.5294 99.2434 41.461 99.2434 38.6125V24.9043C99.2434 19.504 96.3353 16.2402 91.0541 16.2402C87.0187 16.2402 83.8735 18.2578 82.3306 21.1657H82.0338V8.58487C82.0338 6.32983 82.0338 4.01546 82.0931 2.05713H79.6007C76.9897 2.82859 71.7674 4.25284 68.9189 4.72757V7.39801H70.7586C73.0729 7.39801 74.3191 8.22883 74.3191 11.018V39.0278C74.3191 41.3424 73.4881 42.4697 70.5212 42.5294H70.2244ZM130.556 37.2371V11.018C130.556 8.22888 129.31 7.39805 126.995 7.39805H125.156V4.72762C128.004 4.25288 133.227 2.82864 135.837 2.05718H138.33C138.271 4.0155 138.271 6.32988 138.271 8.58492V39.0279C138.271 41.4018 139.161 42.5294 142.128 42.5294H142.425V45.4964H126.953C126.071 46.0119 125.091 46.3272 124.028 46.3272C121.299 46.3272 118.806 44.5468 118.687 40.9267V40.8082H118.391C117.263 43.8941 114.712 46.149 111.032 46.149C106.759 46.149 103.258 43.0632 103.258 39.0278C103.258 33.9244 107.412 31.8474 113.05 30.3638L118.035 29.0583V24.3108C118.035 21.2843 116.432 19.3853 113.762 19.3853C111.092 19.3853 109.727 20.8095 109.727 22.5898C109.727 23.0676 109.82 23.4522 109.918 23.8572L109.918 23.8572C110.027 24.3072 110.142 24.7823 110.142 25.4383C110.142 27.1593 108.658 28.5242 106.759 28.5242C104.623 28.5242 102.961 26.9219 102.961 24.4295C102.961 20.0974 107.175 16.0621 114.474 16.0621C120.883 16.0621 125.512 18.7919 125.512 25.4383V25.6757L125.334 38.6718C125.334 40.4522 126.363 41.0457 127.609 41.0457C128.791 41.0457 130.54 40.7516 130.556 37.2371ZM118.035 31.9661V37.9598C117.263 39.206 115.898 40.3336 113.999 40.3336C111.982 40.3336 110.439 38.9685 110.439 37.0102C110.439 34.6365 112.338 33.5683 115.483 32.6782L118.035 31.9661ZM153.543 46.3865C160.427 46.3865 164.462 40.7489 164.996 34.2211H162.504C161.851 36.7135 159.418 38.9685 155.857 38.9685C150.636 38.9685 147.194 34.5772 147.194 28.5835C147.194 23.3613 150.101 20.1568 153.84 20.1568C155.798 20.1568 156.748 21.1656 157.163 22.2931C157.37 22.8306 157.432 23.3968 157.492 23.9317C157.517 24.1646 157.543 24.3915 157.579 24.6075C157.875 26.2691 159.122 27.5747 160.961 27.5747C163.454 27.5747 164.878 25.8537 164.878 23.5987C164.878 22.2936 164.479 21.0647 163.749 19.9929C165.774 20.3453 166.529 21.9341 167.469 24.0735L176.786 45.0218L176.192 46.5051C175.064 49.3535 173.343 50.7187 170.851 50.7187C170.249 50.7187 169.716 50.6355 169.165 50.5496C168.576 50.4577 167.967 50.3627 167.231 50.3627C164.798 50.3627 163.018 51.6089 163.018 53.8639C163.018 56.297 165.036 58.0178 168.774 58.0178C174.174 58.0178 177.26 54.9911 179.812 48.523L189.426 24.1328C190.434 21.5217 191.384 19.9788 193.876 19.9195V16.8336H182.779V19.9195H183.551C185.153 19.9195 185.924 20.5129 185.924 21.6998C185.924 22.2932 185.746 23.0646 185.39 23.9548L180.643 36.6542L175.658 24.2515C175.302 23.4207 175.124 22.6492 175.124 22.0558C175.124 20.6909 175.955 19.9195 177.675 19.9195H178.388V16.8336H161.547H159.491C158.152 16.3397 156.608 16.0621 154.908 16.0621C147.134 16.0621 140.606 22.1151 140.606 31.788C140.606 39.6805 145.769 46.3865 153.543 46.3865ZM206.258 46.3867C214.091 46.3867 221.094 40.2149 221.094 31.1948C221.094 22.1746 214.091 16.0029 206.258 16.0029C198.306 16.0029 191.363 22.1746 191.363 31.1948C191.363 40.2149 198.306 46.3867 206.258 46.3867ZM206.258 42.2328C202.104 42.2328 200.027 37.9599 200.027 31.1948C200.027 24.6077 201.985 20.2163 206.258 20.2163C210.353 20.2163 212.489 24.4296 212.489 31.1948C212.489 37.7819 210.471 42.2328 206.258 42.2328ZM220.727 45.4965V42.5295H220.846C223.932 42.5295 224.822 41.4611 224.822 39.028V24.8451C224.822 22.2933 223.635 21.4625 221.261 21.4625H220.193V18.8514C222.242 18.4324 225.678 17.5386 228.296 16.8576C229.015 16.6706 229.672 16.4996 230.222 16.359H232.537V21.1658H232.833C234.376 18.258 237.521 16.2403 241.497 16.2403C246.838 16.2403 249.746 19.5042 249.746 24.9044V38.6127C249.746 41.4611 250.458 42.5295 253.307 42.5295H253.858V45.4965H238.827V42.5295H239.124C241.616 42.5295 242.031 41.5204 242.031 39.028V27.1001C242.031 23.3022 240.132 21.9966 237.462 21.9966C235.622 21.9966 233.664 22.8274 232.537 24.0143V39.028C232.537 41.6393 233.13 42.5295 235.563 42.5295H235.919V45.4965H220.727Z" fill="#212324"/>
<path fill-rule="evenodd" clip-rule="evenodd" d="M48.9101 25.3656C49.7008 24.9713 50.4953 24.6601 51.2924 24.4322C50.412 11.0639 39.2668 0.492676 25.6468 0.492676C12.0208 0.492676 0.871343 11.0734 0 24.4503C0.776084 24.6764 1.54984 24.9816 2.31966 25.3656C5.01008 26.708 7.60715 26.708 10.2976 25.3656C14.0426 23.4972 17.881 23.4972 21.626 25.3656C24.3164 26.708 26.9135 26.708 29.6039 25.3656C33.3489 23.4972 37.1873 23.4972 40.9325 25.3656C43.6228 26.708 46.2197 26.708 48.9101 25.3656ZM50.5858 28.709C50.8077 28.5983 51.0289 28.4967 51.2496 28.4042C51.0988 30.1222 50.7785 31.7917 50.3051 33.3957C49.8389 33.5698 49.3742 33.7724 48.9103 34.0037C46.2199 35.346 43.623 35.346 40.9326 34.0037C37.1875 32.1352 33.3491 32.1352 29.6041 34.0037C26.9137 35.346 24.3166 35.346 21.6262 34.0037C17.8812 32.1352 14.0428 32.1352 10.2977 34.0037C7.60732 35.346 5.01025 35.346 2.31983 34.0037C1.87997 33.7843 1.43882 33.5906 0.996688 33.4227C0.521527 31.819 0.199252 30.1499 0.0466998 28.4322C0.245529 28.517 0.444794 28.6093 0.644575 28.709C4.38962 30.5774 8.22799 30.5774 11.973 28.709C14.6634 27.3666 17.2605 27.3666 19.9509 28.709C23.6959 30.5774 27.5343 30.5774 31.2793 28.709C33.9698 27.3666 36.5669 27.3666 39.2575 28.709C43.0022 30.5774 46.8407 30.5774 50.5858 28.709ZM2.99802 38.2721C4.05 40.2232 5.34781 42.023 6.85007 43.6298C7.99191 43.5507 9.13615 43.2213 10.2978 42.6415C14.0428 40.7733 17.8812 40.7733 21.6263 42.6415C24.3167 43.9839 26.9137 43.9839 29.6041 42.6415C33.3492 40.7733 37.1875 40.7733 40.9327 42.6415C42.1147 43.2316 43.2785 43.5621 44.4403 43.6336C45.9498 42.0199 47.253 40.2114 48.3078 38.2501C45.2948 39.1392 42.2462 38.8383 39.2575 37.347C36.5669 36.0047 33.9698 36.0047 31.2794 37.347C27.5344 39.2156 23.696 39.2156 19.951 37.347C17.2606 36.0047 14.6635 36.0047 11.9731 37.347C9.00902 38.8258 5.98646 39.1343 2.99802 38.2721ZM10.2818 46.6997C14.5677 49.8939 19.8859 51.7852 25.6467 51.7852C31.3984 51.7852 36.7089 49.8996 40.9912 46.7145C40.4114 46.5158 39.8332 46.2723 39.2572 45.985C36.5666 44.6427 33.9695 44.6427 31.2791 45.985C27.534 47.8536 23.6957 47.8536 19.9506 45.985C17.2602 44.6427 14.6632 44.6427 11.9727 45.985C11.411 46.2654 10.8472 46.5037 10.2818 46.6997Z" fill="url(#paint0_linear_152_565)"/>
</g>
<defs>
<linearGradient id="paint0_linear_152_565" x1="25.6462" y1="0.492676" x2="25.6462" y2="51.7852" gradientUnits="userSpaceOnUse">
<stop stop-color="#FFAC2F"/>
<stop offset="0.578245" stop-color="#FF8400"/>
<stop offset="1" stop-color="#F44544"/>
</linearGradient>
<clipPath id="clip0_152_565">
<rect width="253.858" height="57.6951" fill="white" transform="translate(0 0.492676)"/>
</clipPath>
</defs>
</svg>
