<svg width="71" height="71" viewBox="0 0 71 71" fill="none" xmlns="http://www.w3.org/2000/svg">
<g clip-path="url(#clip0_153_650)">
<path d="M14.3081 63.034C20.0724 67.33 27.225 69.8738 34.973 69.8738C42.7088 69.8738 49.8511 67.3376 55.6106 63.0539C54.8308 62.7867 54.0531 62.4591 53.2784 62.0728C49.6597 60.2674 46.1668 60.2674 42.5483 62.0728C37.5114 64.5859 32.349 64.5859 27.3121 62.0728C23.6937 60.2674 20.2007 60.2674 16.5823 62.0728C15.8268 62.4499 15.0684 62.7703 14.3081 63.034Z" fill="#212324"/>
<path d="M69.4074 38.4276C69.1105 38.5519 68.8131 38.6885 68.5147 38.8374C63.4778 41.3504 58.3151 41.3504 53.2786 38.8374C49.6599 37.0321 46.167 37.0321 42.5485 38.8374C37.5116 41.3504 32.3492 41.3504 27.3123 38.8374C23.6939 37.0321 20.201 37.0321 16.5825 38.8374C11.5456 41.3504 6.38323 41.3504 1.34635 38.8374C1.07765 38.7033 0.809651 38.5793 0.542236 38.4651C0.74741 40.7754 1.18085 43.0203 1.81992 45.1771C2.41456 45.4029 3.00789 45.6634 3.59947 45.9586C7.21795 47.7639 10.7109 47.7639 14.3293 45.9586C19.3662 43.4456 24.5287 43.4456 29.5655 45.9586C33.184 47.7639 36.6769 47.7639 40.2954 45.9586C45.3322 43.4456 50.4946 43.4456 55.5317 45.9586C59.1501 47.7639 62.6428 47.7639 66.2612 45.9586C66.8851 45.6475 67.5101 45.3749 68.1371 45.1409C68.7738 42.9835 69.2046 40.7382 69.4074 38.4276Z" fill="#212324"/>
<path d="M9.69252 58.9051C7.67207 56.744 5.92658 54.3234 4.51172 51.6994C8.53101 52.8589 12.5962 52.4439 16.5827 50.4551C20.2012 48.6497 23.6941 48.6497 27.3125 50.4551C32.3494 52.9682 37.5118 52.9682 42.5487 50.4551C46.1672 48.6497 49.6601 48.6497 53.2788 50.4551C57.2984 52.4608 61.3987 52.8655 65.4509 51.6698C64.0324 54.3076 62.2796 56.7399 60.2494 58.9102C58.6868 58.8141 57.1216 58.3695 55.5318 57.576C50.4948 55.0633 45.3324 55.0633 40.2956 57.576C36.6771 59.3813 33.1842 59.3813 29.5657 57.576C24.5288 55.0633 19.3664 55.0633 14.3295 57.576C12.7672 58.3557 11.2282 58.7988 9.69252 58.9051Z" fill="#212324"/>
<path d="M69.4648 33.0854C68.3927 33.3919 67.3242 33.8104 66.2608 34.3407C62.6424 36.1461 59.1497 36.1461 55.5312 34.3407C50.4942 31.8278 45.3318 31.8278 40.295 34.3407C36.6765 36.1461 33.1836 36.1461 29.5651 34.3407C24.5282 31.8278 19.3658 31.8278 14.3289 34.3407C10.7105 36.1461 7.21755 36.1461 3.59907 34.3407C2.5637 33.8242 1.52304 33.4138 0.479248 33.1096C1.65116 15.1185 16.6465 0.887939 34.9728 0.887939C53.291 0.887939 68.2808 15.1057 69.4648 33.0854Z" fill="#212324"/>
</g>
<defs>
<clipPath id="clip0_153_650">
<rect width="70" height="70" fill="white" transform="translate(0.233032 0.208496)"/>
</clipPath>
</defs>
</svg>
