<?xml version="1.0" encoding="UTF-8"?>
<svg xmlns="http://www.w3.org/2000/svg" version="1.1" viewBox="0 0 138 122">
  <defs>
    <style>
      .cls-1, .cls-2 {
        fill: #003058;
      }

      .cls-2 {
        fill-rule: evenodd;
      }
    </style>
  </defs>
  <!-- Generator: Adobe Illustrator 28.6.0, SVG Export Plug-In . SVG Version: 1.2.0 Build 709)  -->
  <g>
    <g id="Layer_1">
      <g>
        <path class="cls-2" d="M1.2,110.2v2.2h11.3v-2.2h-.3c-1.8,0-2.3-.7-2.3-2.6v-11.2c.8-.9,2.3-1.5,3.7-1.5,2,0,3.4,1,3.4,3.8v8.9c0,1.9-.3,2.6-2.2,2.6h-.2v2.2h11v-2.2h-.2c-2.1,0-2.6-.8-2.6-2.9v-10.2c0-4-2.2-6.5-6.1-6.5s-5.3,1.5-6.5,3.7h-.2v-9.4c0-1.7,0-3.4,0-4.9h-1.9c-1.9.6-5.8,1.6-8,2v2h1.4c1.7,0,2.7.6,2.7,2.7v20.9c0,1.7-.6,2.6-2.8,2.6h-.2ZM46.2,106.2h0c0,2.7-1.3,2.9-2.2,2.9s-1.7-.4-1.7-1.8v-9.7c.1,0,.1-.2.1-.2,0-4.9-3.4-7-8.2-7s-8.6,3-8.6,6.2,1.2,3,2.8,3,2.5-1,2.5-2.3,0-.8-.2-1.2h0c0-.3-.1-.6-.1-.9,0-1.3,1-2.4,3-2.4s3.2,1.4,3.2,3.7v3.5l-3.7,1c-4.2,1.1-7.3,2.7-7.3,6.5s2.6,5.3,5.8,5.3,4.6-1.7,5.5-4h.2c0,2.8,1.9,4.1,4,4.1s1.5-.2,2.2-.6h11.5v-2.2h-.2c-2.2,0-2.9-.8-2.9-2.6v-22.7c0-1.7,0-3.4,0-4.9h-1.9c-1.9.6-5.8,1.6-8,2v2h1.4c1.7,0,2.7.6,2.7,2.7v19.5ZM36.8,102.3v4.5c-.6.9-1.6,1.8-3,1.8s-2.7-1-2.7-2.5,1.4-2.6,3.8-3.2l1.9-.5ZM63.3,113.1c5.1,0,8.1-4.2,8.5-9.1h-1.9c-.5,1.9-2.3,3.5-4.9,3.5-3.9,0-6.5-3.3-6.5-7.7s2.2-6.3,4.9-6.3,2.2.8,2.5,1.6c.2.4.2.8.2,1.2,0,.2,0,.3,0,.5.2,1.2,1.1,2.2,2.5,2.2s2.9-1.3,2.9-3-.3-1.9-.8-2.7c1.5.3,2.1,1.4,2.8,3l6.9,15.6-.4,1.1c-.8,2.1-2.1,3.1-4,3.1s-.8,0-1.3-.1h0c-.4,0-.9-.1-1.4-.1-1.8,0-3.1.9-3.1,2.6s1.5,3.1,4.3,3.1c4,0,6.3-2.3,8.2-7.1l7.2-18.2c.8-1.9,1.5-3.1,3.3-3.1v-2.3h-8.3v2.3h.6c1.2,0,1.8.4,1.8,1.3s-.1,1-.4,1.7l-3.5,9.5-3.7-9.2c-.3-.6-.4-1.2-.4-1.6,0-1,.6-1.6,1.9-1.6h.5v-2.3h-14.1c-1-.4-2.1-.6-3.4-.6-5.8,0-10.6,4.5-10.6,11.7s3.8,10.9,9.6,10.9ZM102.5,113.1c5.8,0,11-4.6,11-11.3s-5.2-11.3-11-11.3-11.1,4.6-11.1,11.3,5.2,11.3,11.1,11.3ZM102.5,110c-3.1,0-4.6-3.2-4.6-8.2s1.5-8.2,4.6-8.2,4.6,3.1,4.6,8.2-1.5,8.2-4.6,8.2ZM113.3,112.4v-2.2h0c2.3,0,3-.8,3-2.6v-10.6c0-1.9-.9-2.5-2.7-2.5h-.8v-1.9c1.5-.3,4.1-1,6-1.5.5-.1,1-.3,1.4-.4h1.7v3.6h.2c1.1-2.2,3.5-3.7,6.5-3.7s6.1,2.4,6.1,6.5v10.2c0,2.1.5,2.9,2.7,2.9h.4v2.2h-11.2v-2.2h.2c1.9,0,2.2-.8,2.2-2.6v-8.9c0-2.8-1.4-3.8-3.4-3.8s-2.8.6-3.7,1.5v11.2c0,1.9.4,2.6,2.3,2.6h.3v2.2h-11.3Z"/>
        <path class="cls-1" d="M48.3,62.2c5.8,4.3,12.9,6.8,20.7,6.8s14.9-2.5,20.6-6.8c-.8-.3-1.6-.6-2.3-1-3.6-1.8-7.1-1.8-10.7,0-5,2.5-10.2,2.5-15.2,0-3.6-1.8-7.1-1.8-10.7,0-.8.4-1.5.7-2.3,1Z"/>
        <path class="cls-1" d="M103.4,37.6c-.3.1-.6.3-.9.4-5,2.5-10.2,2.5-15.2,0-3.6-1.8-7.1-1.8-10.7,0-5,2.5-10.2,2.5-15.2,0-3.6-1.8-7.1-1.8-10.7,0-5,2.5-10.2,2.5-15.2,0-.3-.1-.5-.3-.8-.4.2,2.3.6,4.6,1.3,6.7.6.2,1.2.5,1.8.8,3.6,1.8,7.1,1.8,10.7,0,5-2.5,10.2-2.5,15.2,0,3.6,1.8,7.1,1.8,10.7,0,5-2.5,10.2-2.5,15.2,0,3.6,1.8,7.1,1.8,10.7,0,.6-.3,1.2-.6,1.9-.8.6-2.2,1.1-4.4,1.3-6.7Z"/>
        <path class="cls-1" d="M43.7,58.1c-2-2.2-3.8-4.6-5.2-7.2,4,1.2,8.1.7,12.1-1.2,3.6-1.8,7.1-1.8,10.7,0,5,2.5,10.2,2.5,15.2,0,3.6-1.8,7.1-1.8,10.7,0,4,2,8.1,2.4,12.2,1.2-1.4,2.6-3.2,5.1-5.2,7.2-1.6,0-3.1-.5-4.7-1.3-5-2.5-10.2-2.5-15.2,0-3.6,1.8-7.1,1.8-10.7,0-5-2.5-10.2-2.5-15.2,0-1.6.8-3.1,1.2-4.6,1.3Z"/>
        <path class="cls-1" d="M103.5,32.3c-1.1.3-2.1.7-3.2,1.3-3.6,1.8-7.1,1.8-10.7,0-5-2.5-10.2-2.5-15.2,0-3.6,1.8-7.1,1.8-10.7,0-5-2.5-10.2-2.5-15.2,0-3.6,1.8-7.1,1.8-10.7,0-1-.5-2.1-.9-3.1-1.2C35.7,14.3,50.7,0,69,0s33.3,14.2,34.5,32.2Z"/>
      </g>
    </g>
  </g>
</svg>