<?xml version="1.0" encoding="UTF-8"?>
<svg xmlns="http://www.w3.org/2000/svg" version="1.1" viewBox="0 0 253.98424 58.96063">
  <defs>
    <style>
      .cls-1 {
        fill-rule: evenodd;
      }

      .cls-1, .cls-2 {
        fill: #fff;
      }

      .cls-3 {
        fill: #ffa400;
      }

      .cls-4 {
        fill: #ff4438;
      }

      .cls-5 {
        fill: #ff6c0e;
      }
    </style>
  </defs>
  <!-- Generator: Adobe Illustrator 28.6.0, SVG Export Plug-In . SVG Version: 1.2.0 Build 709)  -->
  <g>
    <g id="Layer_1">
      <path class="cls-1" d="M70.23002,42.57157v2.998h15.18985v-2.998h-.39973c-2.3984,0-2.998-.8994-2.998-3.49766v-14.98999c1.09926-1.1992,3.09793-1.99867,4.89673-1.99867,2.6982,0,4.59693,1.39907,4.59693,4.99666v11.99199c0,2.49833-.39973,3.49766-2.998,3.49766h-.2998v2.998h14.79013v-2.998h-.2998c-2.79813,0-3.49766-1.09926-3.49766-3.8974v-13.69086c0-5.3964-2.89807-8.69419-8.19452-8.69419s-7.19519,1.99867-8.69419,4.89673h-.2998V2.09859h-2.49833c-2.59826.79947-7.7948,2.19853-10.69286,2.6982v2.6982h1.7988c2.29847,0,3.5976.79947,3.5976,3.5976v27.98131c0,2.29846-.79947,3.39773-3.79747,3.49766h-.2998.09994ZM130.58973,37.27511V11.09259c0-2.79813-1.1992-3.5976-3.5976-3.5976h-1.7988v-2.6982c2.79813-.49967,8.09459-1.89873,10.69286-2.6982h2.49833v36.87538c0,2.3984.89939,3.49766,3.89739,3.49766h.2998v2.998h-15.48966c-.8994.49967-1.89873.79947-2.89807.79947-2.6982,0-5.19653-1.7988-5.29647-5.3964h0c0-.09993-.2998-.09993-.2998-.09993-1.09926,3.09793-3.69753,5.29646-7.39506,5.29646s-7.7948-3.09793-7.7948-7.09526,4.19719-7.1952,9.79346-8.69419l4.99666-1.29913v-4.69686c0-2.998-1.59893-4.89673-4.29713-4.89673s-3.99733,1.39907-3.99733,3.19787,0,.8994.19986,1.29913h0c.09993.49967.19986.8994.19986,1.59893,0,1.69887-1.499,3.09793-3.39773,3.09793s-3.79747-1.59893-3.79747-4.09726c0-4.29713,4.19719-8.39439,11.49233-8.39439s10.99266,2.6982,10.99266,9.39373v.19987l-.19986,12.99132c0,1.7988.99933,2.3984,2.29847,2.3984s2.89807-.2998,2.89807-3.79746h.00002ZM117.99813,32.07858v5.996c-.79947,1.1992-2.0986,2.3984-3.99733,2.3984s-3.5976-1.39907-3.5976-3.2978,1.89873-3.39773,4.99666-4.29713l2.59826-.69953v-.09994ZM153.47444,46.46897c6.89539,0,10.89272-5.59626,11.49233-12.19186h-2.49833c-.69953,2.49833-3.09794,4.69686-6.5956,4.69686-5.19653,0-8.69419-4.39707-8.69419-10.39306s2.89806-8.39439,6.5956-8.39439,2.89806.99933,3.2978,2.0986c.19986.49967.2998,1.09927.2998,1.59893v.69953c.2998,1.69887,1.499,2.998,3.39772,2.998s3.89739-1.69887,3.89739-3.99733-.39973-2.49833-1.09927-3.5976c1.99867.39973,2.79813,1.89873,3.69753,4.09726l9.2938,20.88605-.59961,1.499c-1.09927,2.79813-2.79813,4.1972-5.29647,4.1972s-1.09927,0-1.69886-.19987c-.59961,0-1.1992-.19987-1.89873-.19987-2.39839,0-4.19719,1.1992-4.19719,3.49766s1.99867,4.1972,5.79613,4.1972c5.39639,0,8.49433-2.998,10.99266-9.49366l9.5936-24.38372c.99933-2.59827,1.99867-4.1972,4.497-4.1972v-3.09793h-11.0926v3.09793h.79947c1.59894,0,2.39839.5996,2.39839,1.7988s-.19986,1.39907-.49967,2.29846l-4.69686,12.69153-4.99666-12.39172c-.39973-.79947-.49967-1.59893-.49967-2.19853,0-1.39907.79947-2.0986,2.59827-2.0986h.69953v-3.09793h-18.88738c-1.29914-.49967-2.89806-.79947-4.59694-.79947-7.7948,0-14.29046,6.09593-14.29046,15.68952s5.19653,14.59026,12.89139,14.59026l-.09992.09993ZM206.23921,46.46897c7.7948,0,14.79013-6.19586,14.79013-15.18986s-6.99533-15.18986-14.79013-15.18986-14.89005,6.19586-14.89005,15.18986,6.89539,15.18986,14.89005,15.18986ZM206.23921,42.27177c-4.19719,0-6.19586-4.29713-6.19586-10.99266s1.99867-10.99266,6.19586-10.99266,6.19586,4.1972,6.19586,10.99266-1.99867,10.99266-6.19586,10.99266ZM220.62959,45.56957v-2.998h.09994c3.09794,0,3.99733-1.09926,3.99733-3.49766v-14.19052c0-2.59827-1.1992-3.39773-3.5976-3.39773h-1.09927v-2.59827c1.99867-.39973,5.49633-1.29913,8.0946-1.99867.69953-.19987,1.39906-.39973,1.89873-.49967h2.29847v4.7968h.2998c1.499-2.89806,4.69686-4.89673,8.69419-4.89673s8.19452,3.2978,8.19452,8.69419v13.69086c0,2.79813.69953,3.8974,3.5976,3.8974h.59961v2.998h-14.98999v-2.998h.2998c2.49833,0,2.89806-.99933,2.89806-3.49766v-11.89206c0-3.79746-1.89873-5.0966-4.59694-5.0966s-3.79747.79947-4.89672,1.99867v14.98999c0,2.59826.59961,3.49766,2.998,3.49766h.39973v2.998h-15.18985Z"/>
      <path class="cls-2" d="M51.24271,28.48098c-.19987,0-.39973.19987-.69953.2998-3.69753,1.89873-7.59493,1.89873-11.29246,0-2.6982-1.29913-5.29646-1.29913-7.99466,0-3.69753,1.89873-7.59493,1.89873-11.29246,0-2.6982-1.29913-5.29646-1.29913-7.99466,0-3.69753,1.89873-7.59493,1.89873-11.29246,0-.19987,0-.39973-.19987-.5996-.2998.19987,1.69887.49967,3.39773.8994,4.99666.39973.19987.8994.39973,1.29913.5996,2.6982,1.29913,5.29646,1.29913,7.99466,0,3.69753-1.89873,7.59493-1.89873,11.29246,0,2.6982,1.29913,5.29646,1.29913,7.99466,0,3.69753-1.89873,7.59493-1.89873,11.29246,0,2.6982,1.29913,5.29646,1.29913,7.99466,0,.49967-.19987.8994-.39973,1.39907-.5996.49967-1.59893.79947-3.2978.8994-4.99666h.09993Z"/>
      <path class="cls-2" d="M6.97227,43.67084c-1.499-1.59893-2.79813-3.39773-3.8974-5.3964,2.998.8994,5.996.5996,8.99399-.8994,2.6982-1.29913,5.29646-1.29913,7.99466,0,3.69753,1.89873,7.59493,1.89873,11.29246,0,2.6982-1.29913,5.29646-1.29913,7.99466,0,2.998,1.499,5.996,1.7988,9.09393.8994-1.09926,1.99867-2.3984,3.79746-3.8974,5.3964-1.1992,0-2.29846-.39973-3.49766-.99933-3.69753-1.89873-7.59493-1.89873-11.29246,0-2.6982,1.29913-5.29646,1.29913-7.99466,0-3.69753-1.89873-7.59493-1.89873-11.29246,0-1.1992.5996-2.29847.8994-3.39773.99933h-.09993Z"/>
      <path class="cls-2" d="M10.37,46.76877c4.29713,3.19787,9.59359,5.0966,15.38972,5.0966s11.09259-1.89873,15.28979-5.0966c-.5996-.19987-1.1992-.39973-1.69887-.69953-2.6982-1.29913-5.29646-1.29913-7.99466,0-3.69753,1.89873-7.59493,1.89873-11.29246,0-2.6982-1.29913-5.29646-1.29913-7.99466,0-.5996.2998-1.09927.49967-1.69887.69953Z"/>
      <path class="cls-2" d="M51.34264,24.48365c-.79947.19987-1.59893.49967-2.3984.8994-2.6982,1.29913-5.29646,1.29913-7.99466,0-3.69753-1.89873-7.59493-1.89873-11.29246,0-2.6982,1.29913-5.29646,1.29913-7.99466,0-3.69753-1.89873-7.59493-1.89873-11.29246,0-2.6982,1.29913-5.29646,1.29913-7.99466,0-.79947-.39973-1.499-.69953-2.29847-.8994C.97627,11.19253,12.06887.5996,25.65979.5996s24.78345,10.59293,25.58292,23.88405h.09993Z"/>
      <path class="cls-5" d="M51.24271,28.48098c-.19987,0-.39973.19987-.69953.2998-3.69753,1.89873-7.59493,1.89873-11.29246,0-2.6982-1.29913-5.29646-1.29913-7.99466,0-3.69753,1.89873-7.59493,1.89873-11.29246,0-2.6982-1.29913-5.29646-1.29913-7.99466,0-3.69753,1.89873-7.59493,1.89873-11.29246,0-.19987,0-.39973-.19987-.5996-.2998.19987,1.69887.49967,3.39773.8994,4.99666.39973.19987.8994.39973,1.29913.5996,2.6982,1.29913,5.29646,1.29913,7.99466,0,3.69753-1.89873,7.59493-1.89873,11.29246,0,2.6982,1.29913,5.29646,1.29913,7.99466,0,3.69753-1.89873,7.59493-1.89873,11.29246,0,2.6982,1.29913,5.29646,1.29913,7.99466,0,.49967-.19987.8994-.39973,1.39907-.5996.49967-1.59893.79947-3.2978.8994-4.99666h.09993Z"/>
      <path class="cls-5" d="M6.97227,43.67084c-1.499-1.59893-2.79813-3.39773-3.8974-5.3964,2.998.8994,5.996.5996,8.99399-.8994,2.6982-1.29913,5.29646-1.29913,7.99466,0,3.69753,1.89873,7.59493,1.89873,11.29246,0,2.6982-1.29913,5.29646-1.29913,7.99466,0,2.998,1.499,5.996,1.7988,9.09393.8994-1.09926,1.99867-2.3984,3.79746-3.8974,5.3964-1.1992,0-2.29846-.39973-3.49766-.99933-3.69753-1.89873-7.59493-1.89873-11.29246,0-2.6982,1.29913-5.29646,1.29913-7.99466,0-3.69753-1.89873-7.59493-1.89873-11.29246,0-1.1992.5996-2.29847.8994-3.39773.99933h-.09993Z"/>
      <path class="cls-4" d="M10.37,46.76877c4.29713,3.19787,9.59359,5.0966,15.38972,5.0966s11.09259-1.89873,15.28979-5.0966c-.5996-.19987-1.1992-.39973-1.69887-.69953-2.6982-1.29913-5.29646-1.29913-7.99466,0-3.69753,1.89873-7.59493,1.89873-11.29246,0-2.6982-1.29913-5.29646-1.29913-7.99466,0-.5996.2998-1.09927.49967-1.69887.69953Z"/>
      <path class="cls-3" d="M51.34264,24.48365c-.79947.19987-1.59893.49967-2.3984.8994-2.6982,1.29913-5.29646,1.29913-7.99466,0-3.69753-1.89873-7.59493-1.89873-11.29246,0-2.6982,1.29913-5.29646,1.29913-7.99466,0-3.69753-1.89873-7.59493-1.89873-11.29246,0-2.6982,1.29913-5.29646,1.29913-7.99466,0-.79947-.39973-1.499-.69953-2.29847-.8994C.97627,11.19253,12.06887.5996,25.65979.5996s24.78345,10.59293,25.58292,23.88405h.09993Z"/>
    </g>
  </g>
</svg>