<svg id="Layer_1" data-name="Layer 1" xmlns="http://www.w3.org/2000/svg" viewBox="0 0 358 317"><defs><style>.cls-1,.cls-2{fill:#fff;}.cls-1{fill-rule:evenodd;}</style></defs><path class="cls-1" d="M2.52712,286.345v5.743H31.9354v-5.743h-.6899c-4.7093,0-5.8581-1.723-5.8581-6.778V250.504a13.35063,13.35063,0,0,1,9.5341-3.906c5.2844,0,8.8456,2.642,8.8456,9.764v23.205c0,4.825-.8039,6.778-5.7434,6.778h-.5744v5.743H66.053v-5.743h-.5744c-5.5139,0-6.7775-2.068-6.7775-7.582V252.227c0-10.454-5.6294-16.772-15.8526-16.772-7.8116,0-13.8999,3.906-16.8867,9.535h-.5744V220.636c0-4.365,0-8.845.1147-12.636H20.6774C15.6231,209.493,5.51392,212.25,0,213.169v5.17H3.56122c4.47982,0,6.89218,1.608,6.89218,7.007v54.221c0,4.48-1.60847,6.663-7.35186,6.778ZM119.315,276.006h0c0,6.892-3.407,7.467-5.705,7.467-2.412,0-4.404-1.149-4.404-4.595l.345-25.158v-.459c0-12.866-8.961-18.151-21.3669-18.151-14.1301,0-22.2859,7.812-22.2859,16.198,0,4.825,3.2163,7.926,7.3519,7.926,3.6759,0,6.548-2.642,6.548-5.973a11.98345,11.98345,0,0,0-.4337-3.061,9.85228,9.85228,0,0,1-.3702-2.453c0-3.447,2.6419-6.204,7.8116-6.204,5.1689,0,8.2705,3.676,8.2705,9.535v9.19l-9.6496,2.527c-10.9131,2.872-18.9541,6.893-18.9541,16.772,0,7.811,6.7775,13.785,15.0487,13.785,7.1225,0,12.062-4.365,14.2441-10.339h.5745v.23c.2302,7.007,5.0551,10.454,10.3391,10.454a11.1402,11.1402,0,0,0,5.662-1.609H142.29v-5.743h-.574c-5.744,0-7.467-2.183-7.467-6.778V220.636c0-4.365,0-8.845.115-12.636h-4.825c-5.054,1.493-15.163,4.25-20.677,5.169v5.17h3.561c4.48,0,6.892,1.608,6.892,7.007ZM95.0763,265.897v11.602a9.16784,9.16784,0,0,1-7.8116,4.596c-3.9054,0-6.8922-2.643-6.8922-6.434,0-4.595,3.6759-6.662,9.7643-8.386Zm68.7367,27.915c13.326,0,21.137-10.914,22.171-23.55h-4.825c-1.264,4.825-5.973,9.19-12.866,9.19-10.108,0-16.771-8.501-16.771-20.103,0-10.109,5.629-16.312,12.866-16.312,3.79,0,5.628,1.953,6.432,4.135a12.5434,12.5434,0,0,1,.636,3.172h.001v.001h0c.05.451.098.89.168,1.307a6.58553,6.58553,0,0,0,6.548,5.744c4.825,0,7.581-3.331,7.581-7.696a12.29477,12.29477,0,0,0-2.184-6.98c3.918.682,5.381,3.757,7.199,7.899l18.036,40.551-1.149,2.871c-2.183,5.514-5.515,8.157-10.339,8.157a20.38835,20.38835,0,0,1-3.263-.328,23.03433,23.03433,0,0,0-3.744-.362c-4.71,0-8.157,2.413-8.157,6.778,0,4.71,3.906,8.041,11.144,8.041,10.453,0,16.427-5.859,21.366-18.38l18.61-47.213c1.953-5.055,3.791-8.042,8.615-8.157v-5.973H220.407v5.973H221.9c3.102,0,4.596,1.149,4.596,3.447a12.37623,12.37623,0,0,1-1.035,4.365l-9.189,24.583-9.65-24.009a11.352,11.352,0,0,1-1.034-4.25c0-2.642,1.608-4.136,4.939-4.136h1.379v-5.973h-36.58a25.61821,25.61821,0,0,0-8.871-1.494c-15.049,0-27.685,11.718-27.685,30.442C138.77,280.83,148.765,293.812,163.813,293.812Zm102.044,0c15.163,0,28.718-11.947,28.718-29.408s-13.555-29.408-28.718-29.408c-15.394,0-28.834,11.947-28.834,29.408S250.463,293.812,265.857,293.812Zm0-8.041c-8.042,0-12.062-8.272-12.062-21.367,0-12.751,3.791-21.252,12.062-21.252,7.926,0,12.062,8.156,12.062,21.252C277.919,277.155,274.013,285.771,265.857,285.771Zm28.009,6.318v-5.744h.229c5.974,0,7.697-2.068,7.697-6.778V252.112c0-4.94-2.298-6.548-6.892-6.548h-2.069V240.51c3.966-.811,10.618-2.542,15.686-3.86,1.392-.362,2.664-.693,3.728-.965h4.481v9.305h.574c2.987-5.629,9.075-9.535,16.771-9.535,10.339,0,15.969,6.318,15.969,16.772v26.536c0,5.514,1.378,7.582,6.892,7.582H358v5.744H328.902v-5.744h.575c4.825,0,5.629-1.953,5.629-6.778v-23.09c0-7.352-3.676-9.879-8.846-9.879a13.84236,13.84236,0,0,0-9.534,3.906v29.063c0,5.055,1.149,6.778,5.858,6.778h.69v5.744Z"/><path class="cls-2" d="M268.204,97.5982q-1.1565.48495-2.321,1.0657c-13.095,6.5331-26.517,6.5331-39.611,0-9.409-4.6938-18.49-4.6938-27.897,0-13.096,6.5331-26.517,6.5331-39.613,0-9.407-4.6938-18.488-4.6938-27.896,0-13.095,6.5331-26.517,6.5331-39.6119,0q-1.0479-.5229-2.0906-.968a89.13886,89.13886,0,0,0,3.3218,17.4501q2.319.8805,4.6267,2.032c9.408,4.694,18.489,4.694,27.896,0,13.095-6.534,26.517-6.534,39.612,0,9.408,4.694,18.489,4.694,27.897,0,13.095-6.534,26.517-6.534,39.612,0,9.408,4.694,18.488,4.694,27.896,0a50.36332,50.36332,0,0,1,4.877-2.126A89.166,89.166,0,0,0,268.204,97.5982Z"/><path class="cls-2" d="M112.953,150.837a89.9607,89.9607,0,0,1-13.4699-18.734c10.4499,3.015,21.0189,1.936,31.3829-3.235,9.408-4.694,18.489-4.694,27.896,0,13.096,6.534,26.517,6.534,39.612,0,9.408-4.694,18.489-4.694,27.897,0,10.451,5.215,21.111,6.267,31.646,3.158a89.87531,89.87531,0,0,1-13.523,18.824,31.65532,31.65532,0,0,1-12.265-3.468c-13.096-6.533-26.517-6.533-39.612,0-9.408,4.693-18.489,4.693-27.897,0-13.095-6.533-26.517-6.533-39.612,0A31.78223,31.78223,0,0,1,112.953,150.837Z"/><path class="cls-2" d="M124.953,161.572a90.05056,90.05056,0,0,0,107.381.051,49.63871,49.63871,0,0,1-6.063-2.55c-9.408-4.694-18.489-4.694-27.897,0-13.095,6.533-26.517,6.533-39.612,0-9.408-4.694-18.489-4.694-27.896,0A49.91066,49.91066,0,0,1,124.953,161.572Z"/><path class="cls-2" d="M268.354,83.7094a48.53571,48.53571,0,0,0-8.33,3.2637c-9.408,4.6937-18.488,4.6937-27.896,0-13.095-6.5334-26.517-6.5334-39.612,0-9.408,4.6937-18.489,4.6937-27.896,0-13.096-6.5334-26.517-6.5334-39.613,0-9.407,4.6937-18.488,4.6937-27.8959,0A48.6764,48.6764,0,0,0,89,83.7724a89.8874,89.8874,0,0,1,179.354-.063Z"/></svg>