<?xml version="1.0" encoding="UTF-8"?>
<svg xmlns="http://www.w3.org/2000/svg" version="1.1" viewBox="0 0 358 317">
  <defs>
    <style>
      .cls-1, .cls-2 {
        fill: #25282a;
      }

      .cls-2 {
        fill-rule: evenodd;
      }
    </style>
  </defs>
  <!-- Generator: Adobe Illustrator 28.6.0, SVG Export Plug-In . SVG Version: 1.2.0 Build 709)  -->
  <g>
    <g id="Layer_1">
      <g id="Layer_1-2" data-name="Layer_1">
        <g>
          <path class="cls-2" d="M2.52712,286.345v5.74301h29.40828v-5.74301h-.6899c-4.7093,0-5.8581-1.72299-5.8581-6.77802v-29.06299c2.1822-2.41299,5.9736-3.90599,9.5341-3.90599,5.2844,0,8.8456,2.642,8.8456,9.76399v23.20499c0,4.82501-.8039,6.77802-5.7434,6.77802h-.5744v5.74301h28.6037v-5.74301h-.5744c-5.5139,0-6.7775-2.06799-6.7775-7.582v-26.536c0-10.45401-5.6294-16.772-15.8526-16.772-7.8116,0-13.8999,3.90599-16.8867,9.535h-.5744v-24.354c0-4.36501,0-8.845.1147-12.636h-4.8247c-5.0543,1.493-15.16348,4.25-20.6774,5.16901v5.17h3.56122c4.47982,0,6.89218,1.608,6.89218,7.00699v54.22099c0,4.48001-1.60847,6.66302-7.35186,6.77802h-.57442ZM119.315,276.00601h0c0,6.892-3.40701,7.46698-5.705,7.46698-2.412,0-4.404-1.14899-4.404-4.595l.345-25.15799v-.459c0-12.866-8.96101-18.151-21.36691-18.151-14.1301,0-22.2859,7.812-22.2859,16.198,0,4.825,3.2163,7.92601,7.3519,7.92601,3.6759,0,6.548-2.642,6.548-5.97301,0-1.27-.2227-2.19-.4337-3.061-.1899-.784-.3702-1.528-.3702-2.453,0-3.44699,2.6419-6.20399,7.8116-6.20399,5.1689,0,8.2705,3.67599,8.2705,9.535v9.19l-9.6496,2.52701c-10.91309,2.87198-18.95409,6.89297-18.95409,16.77197,0,7.811,6.7775,13.785,15.0487,13.785,7.1225,0,12.062-4.36499,14.2441-10.33899h.57449v.23001c.2302,7.00699,5.0551,10.45398,10.3391,10.45398,2.057,0,3.954-.61099,5.662-1.60898h29.94899v-5.74301h-.57399c-5.744,0-7.46701-2.18301-7.46701-6.77802v-58.93098c0-4.36501,0-8.845.11501-12.636h-4.825c-5.054,1.493-15.163,4.25-20.677,5.16901v5.17h3.561c4.48,0,6.89201,1.608,6.89201,7.00699,0,0,0,50.66002,0,50.66002ZM95.0763,265.897v11.60199c-1.4931,2.41299-4.1356,4.59601-7.8116,4.59601-3.9054,0-6.8922-2.64301-6.8922-6.43399,0-4.595,3.6759-6.66202,9.76431-8.38602l4.9395-1.37799h-.00002ZM163.813,293.81201c13.326,0,21.13699-10.914,22.17099-23.55002h-4.825c-1.26399,4.82501-5.97299,9.19-12.866,9.19-10.108,0-16.771-8.50101-16.771-20.103,0-10.10899,5.629-16.312,12.866-16.312,3.78999,0,5.62801,1.953,6.43201,4.13499.39999,1.041.52199,2.13701.63599,3.172h.00101v.00101h0c.05.451.09799.89.168,1.30699.57401,3.21701,2.987,5.744,6.548,5.744,4.825,0,7.58099-3.33099,7.58099-7.696,0-2.52699-.771-4.90599-2.18399-6.98,3.918.68199,5.381,3.757,7.19899,7.899l18.036,40.55101-1.14899,2.87097c-2.183,5.51401-5.515,8.15701-10.339,8.15701-1.16501,0-2.19701-.16101-3.263-.328-1.14-.17801-2.32001-.362-3.744-.362-4.70999,0-8.157,2.41299-8.157,6.77802,0,4.70999,3.90601,8.04099,11.144,8.04099,10.453,0,16.427-5.85901,21.366-18.38l18.61-47.213c1.953-5.05499,3.791-8.04199,8.61501-8.157v-5.97299h-21.481v5.97299h1.493c3.10201,0,4.59601,1.149,4.59601,3.44701,0,1.14799-.345,2.642-1.035,4.36501l-9.189,24.58298-9.65001-24.00899c-.689-1.608-1.034-3.101-1.034-4.25,0-2.642,1.608-4.136,4.939-4.136h1.37901v-5.97299h-36.58c-2.59001-.95601-5.58-1.494-8.871-1.494-15.049,0-27.685,11.718-27.685,30.442,0,15.27798,9.995,28.26001,25.043,28.26001ZM265.85699,293.81201c15.16299,0,28.71802-11.94702,28.71802-29.40802s-13.55502-29.40799-28.71802-29.40799c-15.394,0-28.834,11.94699-28.834,29.40799s13.44,29.40802,28.834,29.40802ZM265.85699,285.771c-8.04199,0-12.062-8.272-12.062-21.367,0-12.75099,3.791-21.252,12.062-21.252,7.92599,0,12.06201,8.15601,12.06201,21.252,0,12.75101-3.90601,21.367-12.06201,21.367ZM293.866,292.08899v-5.74399h.229c5.974,0,7.69699-2.06799,7.69699-6.77802v-27.45499c0-4.94-2.298-6.548-6.892-6.548h-2.069v-5.054c3.966-.81099,10.61801-2.54199,15.686-3.86,1.392-.362,2.664-.69299,3.728-.965h4.48102v9.30501h.57397c2.987-5.62901,9.07501-9.535,16.77103-9.535,10.33899,0,15.96899,6.31799,15.96899,16.772v26.536c0,5.51401,1.37799,7.582,6.892,7.582h1.06799v5.74399h-29.09799v-5.74399h.57498c4.82501,0,5.629-1.953,5.629-6.77802v-23.09c0-7.35199-3.67599-9.87898-8.84598-9.87898-3.561,0-7.35202,1.60799-9.534,3.90599v29.06299c0,5.05502,1.14899,6.77802,5.858,6.77802h.68997v5.74399h-29.40799Z"/>
          <path class="cls-1" d="M124.953,161.57201c14.987,11.16899,33.582,17.782,53.726,17.782,20.112,0,38.681-6.593,53.655-17.731-2.02699-.694-4.049-1.54601-6.063-2.55-9.40799-4.694-18.489-4.694-27.897,0-13.09499,6.533-26.517,6.533-39.612,0-9.40799-4.694-18.489-4.694-27.896,0-1.965.98-3.936,1.813-5.91299,2.49901Z"/>
          <path class="cls-1" d="M268.354,83.7094c-2.78799.79681-5.56601,1.8848-8.33002,3.2637-9.40799,4.6937-18.48799,4.6937-27.89598,0-13.095-6.5334-26.51701-6.5334-39.612,0-9.408,4.6937-18.48901,4.6937-27.89601,0-13.09599-6.5334-26.517-6.5334-39.61299,0-9.40701,4.6937-18.48801,4.6937-27.8959,0-2.6918-1.3429-5.3974-2.4099-8.1111-3.2007C92.0468,36.9976,131.033,0,178.679,0c47.625,0,86.597,36.9644,89.675,83.7094Z"/>
          <path class="cls-1" d="M268.20401,97.5982c-.771.3233-1.54501.6785-2.32101,1.0657-13.095,6.5331-26.517,6.5331-39.61099,0-9.409-4.6938-18.49001-4.6938-27.897,0-13.09599,6.5331-26.517,6.5331-39.61301,0-9.407-4.6938-18.48799-4.6938-27.896,0-13.09499,6.5331-26.517,6.5331-39.6119,0-.6986-.3486-1.39529-.6712-2.0906-.968.5334,6.0061,1.6603,11.8431,3.3218,17.4501,1.54601.587,3.0886,1.265,4.6267,2.032,9.408,4.694,18.489,4.694,27.896,0,13.09499-6.534,26.517-6.534,39.612,0,9.408,4.694,18.489,4.694,27.897,0,13.095-6.534,26.517-6.534,39.612,0,9.408,4.694,18.48801,4.694,27.896,0,1.62201-.809,3.24701-1.518,4.87701-2.126,1.655-5.609,2.77499-11.446,3.302-17.4538Z"/>
          <path class="cls-1" d="M112.953,150.83701c-5.25301-5.61801-9.791-11.912-13.4699-18.73401,10.4499,3.015,21.0189,1.936,31.3829-3.235,9.408-4.69399,18.489-4.69399,27.896,0,13.09601,6.534,26.51701,6.534,39.612,0,9.408-4.69399,18.48901-4.69399,27.897,0,10.451,5.215,21.11101,6.267,31.646,3.158-3.68799,6.858-8.245,13.18199-13.52299,18.82401-4.063-.24901-8.132-1.405-12.265-3.468-13.09599-6.533-26.517-6.533-39.612,0-9.408,4.69299-18.489,4.69299-27.897,0-13.095-6.533-26.517-6.533-39.61199,0-4.062,2.02699-8.063,3.179-12.055,3.455Z"/>
        </g>
      </g>
    </g>
  </g>
</svg>