<?xml version="1.0" encoding="UTF-8"?>
<svg xmlns="http://www.w3.org/2000/svg" version="1.1" viewBox="0 0 70.86614 70.86614">
  <defs>
    <style>
      .cls-1 {
        fill: #fff;
      }
    </style>
  </defs>
  <!-- Generator: Adobe Illustrator 28.6.0, SVG Export Plug-In . SVG Version: 1.2.0 Build 709)  -->
  <g>
    <g id="Layer_1">
      <g id="Layer_1-2" data-name="Layer_1">
        <g id="Layer_1-2">
          <g>
            <path class="cls-1" d="M14.7721,63.08085c5.78907,4.29189,12.87568,6.78718,20.66097,6.78718s14.87191-2.49529,20.56116-6.78718c-.79849-.29943-1.59698-.59887-2.29566-.99811-3.59321-1.79661-7.08661-1.79661-10.67983,0-4.99057,2.49528-10.18077,2.49528-15.17134,0-3.59321-1.79661-7.08661-1.79661-10.67983,0-.79849.39925-1.49717.69868-2.29566.99811h-.09981Z"/>
            <path class="cls-1" d="M69.76822,38.42742c-.29944,0-.59887.29943-.8983.39925-4.99057,2.49529-10.18077,2.49529-15.17134,0s-7.08661-1.79661-10.67983,0c-4.99057,2.49529-10.18077,2.49529-15.17134,0-3.59321-1.79661-7.08661-1.79661-10.67983,0-4.99057,2.49529-10.18077,2.49529-15.17134,0-.29943,0-.49906-.29943-.79849-.39925.19962,2.29566.59887,4.59133,1.29755,6.68737.59887.19962,1.19774.49906,1.79661.79849,3.59321,1.79661,7.08661,1.79661,10.67983,0,4.99057-2.49529,10.18077-2.49529,15.17134,0s7.08661,1.79661,10.67983,0c4.99057-2.49529,10.18077-2.49529,15.17134,0s7.08661,1.79661,10.67982,0,1.19773-.59887,1.89642-.79849c.59887-2.19585,1.09792-4.39171,1.29755-6.68737h-.09981Z"/>
            <path class="cls-1" d="M10.18077,58.88877c-1.99623-2.19585-3.79284-4.59133-5.1902-7.18643,3.99246,1.19774,8.08473.69868,12.07719-1.19774,3.59321-1.79661,7.08661-1.79661,10.67983,0s10.18077,2.49529,15.17134,0,7.08661-1.79661,10.67983,0c3.99246,1.99623,8.08473,2.39548,12.177,1.19774-1.39736,2.5951-3.19397,5.09038-5.1902,7.18643-1.59698,0-3.09415-.49906-4.69114-1.29755-4.99057-2.49529-10.18077-2.49529-15.17134,0s-7.08661,1.79661-10.67983,0c-4.99057-2.49529-10.18077-2.49529-15.17134,0-1.59698.79849-3.09416,1.19774-4.59133,1.29755h-.09981Z"/>
            <path class="cls-1" d="M69.86803,33.13741c-1.09792.29943-2.09604.69868-3.19396,1.29755-3.59321,1.79661-7.08661,1.79661-10.67983,0-4.99057-2.49529-10.18077-2.49529-15.17134,0s-7.08661,1.79661-10.67983,0c-4.99057-2.49529-10.18077-2.49529-15.17134,0-3.59321,1.79661-7.08661,1.79661-10.67983,0-.99811-.49906-2.09604-.8983-3.09416-1.19774C2.19585,15.17134,17.16757.99811,35.43307.99811s33.23722,14.17323,34.43496,32.13929Z"/>
          </g>
        </g>
      </g>
    </g>
  </g>
</svg>