<?xml version="1.0" encoding="UTF-8"?>
<svg xmlns="http://www.w3.org/2000/svg" version="1.1" viewBox="0 0 70.86614 70.86614">
  <defs>
    <style>
      .cls-1 {
        fill: #25282a;
      }
    </style>
  </defs>
  <!-- Generator: Adobe Illustrator 28.6.0, SVG Export Plug-In . SVG Version: 1.2.0 Build 709)  -->
  <g>
    <g id="Layer_1">
      <g>
        <path class="cls-1" d="M14.75213,62.88242c5.76628,4.2688,12.825,6.75066,20.57965,6.75066s14.81337-2.48186,20.48023-6.75065c-.79535-.29782-1.5907-.59564-2.28663-.99274-3.57907-1.78694-7.05872-1.78694-10.63779,0-4.97093,2.48185-10.1407,2.48185-15.11163,0-3.57907-1.78694-7.05872-1.78694-10.63779,0-.79535.3971-1.49128.69492-2.28663.99274h-.09942Z"/>
        <path class="cls-1" d="M69.53178,38.46094c-.29826.09927-.59651.29782-.89477.3971-4.97093,2.48186-10.1407,2.48186-15.11163,0-3.57907-1.78694-7.05872-1.78694-10.63779,0-4.97093,2.48186-10.1407,2.48186-15.11163,0-3.57907-1.78694-7.05872-1.78694-10.63779,0-4.97093,2.48186-10.1407,2.48186-15.11163,0-.29826-.09927-.49709-.29782-.79535-.3971.19884,2.28331.59651,4.56662,1.29244,6.65138.59651.19855,1.19302.49637,1.78953.79419,3.57907,1.78694,7.05872,1.78694,10.63779,0,4.97093-2.48186,10.1407-2.48186,15.11163,0,3.57907,1.78694,7.05872,1.78694,10.63779,0,4.97093-2.48186,10.1407-2.48186,15.11163,0,3.57907,1.78694,7.05872,1.78694,10.63779,0,.59651-.29782,1.19302-.59564,1.88895-.79419.59651-2.18404,1.0936-4.36807,1.29244-6.65138h-.09942Z"/>
        <path class="cls-1" d="M10.17888,58.81217c-1.98837-2.18404-3.77791-4.56662-5.16977-7.14775,3.97674,1.19129,8.05291.69492,12.02965-1.19129,3.57907-1.78694,7.05872-1.78694,10.63779,0,4.97093,2.48186,10.1407,2.48186,15.11163,0,3.57907-1.78694,7.05872-1.78694,10.63779,0,3.97674,1.98549,8.05291,2.38258,12.12907,1.19129-1.39186,2.58113-3.1814,5.06299-5.16977,7.14775-1.5907,0-3.08198-.49637-4.67267-1.29057-4.97093-2.48186-10.1407-2.48186-15.11163,0-3.57907,1.78694-7.05872,1.78694-10.63779,0-4.97093-2.48186-10.1407-2.48186-15.11163,0-1.5907.79419-3.08198,1.19129-4.57326,1.29057h-.09942Z"/>
        <path class="cls-1" d="M69.6312,33.1994c-1.0936.29782-2.08779.69492-3.18139,1.29057-3.57907,1.78694-7.05872,1.78694-10.63779,0-4.97093-2.48186-10.1407-2.48186-15.11163,0-3.57907,1.78694-7.05872,1.78694-10.63779,0-4.97093-2.48186-10.1407-2.48186-15.11163,0-3.57907,1.78694-7.05872,1.78694-10.63779,0-.99419-.49637-2.08779-.89347-3.08198-1.19129C2.22539,15.33002,17.03876,1.23307,35.33178,1.23307s33.1064,14.09695,34.29942,31.96633Z"/>
      </g>
    </g>
  </g>
</svg>